<?xml version="1.0" encoding="UTF-8" standalone="no"?><svg xmlns="http://www.w3.org/2000/svg" xmlns:xlink="http://www.w3.org/1999/xlink" contentScriptType="application/ecmascript" contentStyleType="text/css" height="650px" preserveAspectRatio="none" style="width:657px;height:650px;" version="1.1" viewBox="0 0 657 650" width="657px" zoomAndPan="magnify"><defs><filter height="300%" id="fakjxue29bcyr" width="300%" x="-1" y="-1"><feGaussianBlur result="blurOut" stdDeviation="2.0"/><feColorMatrix in="blurOut" result="blurOut2" type="matrix" values="0 0 0 0 0 0 0 0 0 0 0 0 0 0 0 0 0 0 .4 0"/><feOffset dx="4.0" dy="4.0" in="blurOut2" result="blurOut3"/><feBlend in="SourceGraphic" in2="blurOut3" mode="normal"/></filter></defs><g><line style="stroke: #A80036; stroke-width: 1.0; stroke-dasharray: 5.0,5.0;" x1="72" x2="72" y1="38.4883" y2="610.0098"/><line style="stroke: #A80036; stroke-width: 1.0; stroke-dasharray: 5.0,5.0;" x1="197.5" x2="197.5" y1="38.4883" y2="610.0098"/><line style="stroke: #A80036; stroke-width: 1.0; stroke-dasharray: 5.0,5.0;" x1="365" x2="365" y1="38.4883" y2="610.0098"/><line style="stroke: #A80036; stroke-width: 1.0; stroke-dasharray: 5.0,5.0;" x1="504" x2="504" y1="38.4883" y2="610.0098"/><line style="stroke: #A80036; stroke-width: 1.0; stroke-dasharray: 5.0,5.0;" x1="597" x2="597" y1="38.4883" y2="610.0098"/><rect fill="#FEFECE" filter="url(#fakjxue29bcyr)" height="30.4883" style="stroke: #A80036; stroke-width: 1.5;" width="125" x="8" y="3"/><text fill="#000000" font-family="sans-serif" font-size="14" lengthAdjust="spacingAndGlyphs" textLength="111" x="15" y="23.5352">FrameworkState</text><rect fill="#FEFECE" filter="url(#fakjxue29bcyr)" height="30.4883" style="stroke: #A80036; stroke-width: 1.5;" width="125" x="8" y="609.0098"/><text fill="#000000" font-family="sans-serif" font-size="14" lengthAdjust="spacingAndGlyphs" textLength="111" x="15" y="629.5449">FrameworkState</text><rect fill="#FEFECE" filter="url(#fakjxue29bcyr)" height="30.4883" style="stroke: #A80036; stroke-width: 1.5;" width="82" x="154.5" y="3"/><text fill="#000000" font-family="sans-serif" font-size="14" lengthAdjust="spacingAndGlyphs" textLength="68" x="161.5" y="23.5352">Scheduler</text><rect fill="#FEFECE" filter="url(#fakjxue29bcyr)" height="30.4883" style="stroke: #A80036; stroke-width: 1.5;" width="82" x="154.5" y="609.0098"/><text fill="#000000" font-family="sans-serif" font-size="14" lengthAdjust="spacingAndGlyphs" textLength="68" x="161.5" y="629.5449">Scheduler</text><rect fill="#FEFECE" filter="url(#fakjxue29bcyr)" height="30.4883" style="stroke: #A80036; stroke-width: 1.5;" width="135" x="296" y="3"/><text fill="#000000" font-family="sans-serif" font-size="14" lengthAdjust="spacingAndGlyphs" textLength="121" x="303" y="23.5352">SchedulerStorage</text><rect fill="#FEFECE" filter="url(#fakjxue29bcyr)" height="30.4883" style="stroke: #A80036; stroke-width: 1.5;" width="135" x="296" y="609.0098"/><text fill="#000000" font-family="sans-serif" font-size="14" lengthAdjust="spacingAndGlyphs" textLength="121" x="303" y="629.5449">SchedulerStorage</text><rect fill="#FEFECE" filter="url(#fakjxue29bcyr)" height="30.4883" style="stroke: #A80036; stroke-width: 1.5;" width="57" x="474" y="3"/><text fill="#000000" font-family="sans-serif" font-size="14" lengthAdjust="spacingAndGlyphs" textLength="43" x="481" y="23.5352">Mesos</text><rect fill="#FEFECE" filter="url(#fakjxue29bcyr)" height="30.4883" style="stroke: #A80036; stroke-width: 1.5;" width="57" x="474" y="609.0098"/><text fill="#000000" font-family="sans-serif" font-size="14" lengthAdjust="spacingAndGlyphs" textLength="43" x="481" y="629.5449">Mesos</text><rect fill="#FEFECE" filter="url(#fakjxue29bcyr)" height="30.4883" style="stroke: #A80036; stroke-width: 1.5;" width="101" x="545" y="3"/><text fill="#000000" font-family="sans-serif" font-size="14" lengthAdjust="spacingAndGlyphs" textLength="87" x="552" y="23.5352">Orchestrator</text><rect fill="#FEFECE" filter="url(#fakjxue29bcyr)" height="30.4883" style="stroke: #A80036; stroke-width: 1.5;" width="101" x="545" y="609.0098"/><text fill="#000000" font-family="sans-serif" font-size="14" lengthAdjust="spacingAndGlyphs" textLength="87" x="552" y="629.5449">Orchestrator</text><polygon fill="#A80036" points="185.5,65.7988,195.5,69.7988,185.5,73.7988,189.5,69.7988" style="stroke: #A80036; stroke-width: 1.0;"/><line style="stroke: #A80036; stroke-width: 1.0;" x1="72.5" x2="191.5" y1="69.7988" y2="69.7988"/><text fill="#000000" font-family="sans-serif" font-size="13" lengthAdjust="spacingAndGlyphs" textLength="101" x="79.5" y="65.0566">Launch Pod A#1</text><polygon fill="#FBFB77" filter="url(#fakjxue29bcyr)" points="50,82.7988,345,82.7988,355,101.7988,345,120.7988,50,120.7988,40,101.7988,50,82.7988" style="stroke: #A80036; stroke-width: 1.0;"/><text fill="#000000" font-family="sans-serif" font-size="13" lengthAdjust="spacingAndGlyphs" textLength="291" x="52" y="99.3672">No record exists for A#1; enqueued to launch.</text><text fill="#000000" font-family="sans-serif" font-size="13" lengthAdjust="spacingAndGlyphs" textLength="182" x="52" y="114.6777">Revive for role sent to Mesos</text><polygon fill="#A80036" points="353.5,143.7305,363.5,147.7305,353.5,151.7305,357.5,147.7305" style="stroke: #A80036; stroke-width: 1.0;"/><line style="stroke: #A80036; stroke-width: 1.0;" x1="197.5" x2="359.5" y1="147.7305" y2="147.7305"/><text fill="#000000" font-family="sans-serif" font-size="13" lengthAdjust="spacingAndGlyphs" textLength="40" x="204.5" y="142.9883">Revive</text><polygon fill="#FBFB77" filter="url(#fakjxue29bcyr)" points="269,160.7305,461,160.7305,471,171.7305,461,183.7305,269,183.7305,259,171.7305,269,160.7305" style="stroke: #A80036; stroke-width: 1.0;"/><text fill="#000000" font-family="sans-serif" font-size="13" lengthAdjust="spacingAndGlyphs" textLength="188" x="271" y="177.2988">Nothing to store; just forward</text><polygon fill="#A80036" points="492.5,206.3516,502.5,210.3516,492.5,214.3516,496.5,210.3516" style="stroke: #A80036; stroke-width: 1.0;"/><line style="stroke: #A80036; stroke-width: 1.0;" x1="365.5" x2="498.5" y1="210.3516" y2="210.3516"/><text fill="#000000" font-family="sans-serif" font-size="13" lengthAdjust="spacingAndGlyphs" textLength="40" x="372.5" y="205.6094">Revive</text><polygon fill="#A80036" points="208.5,235.6621,198.5,239.6621,208.5,243.6621,204.5,239.6621" style="stroke: #A80036; stroke-width: 1.0;"/><line style="stroke: #A80036; stroke-width: 1.0;" x1="202.5" x2="503.5" y1="239.6621" y2="239.6621"/><text fill="#000000" font-family="sans-serif" font-size="13" lengthAdjust="spacingAndGlyphs" textLength="32" x="214.5" y="234.9199">Offer</text><polygon fill="#FBFB77" filter="url(#fakjxue29bcyr)" points="87,252.6621,308,252.6621,318,294.6621,308,336.6621,87,336.6621,77,294.6621,87,252.6621" style="stroke: #A80036; stroke-width: 1.0;"/><text fill="#000000" font-family="sans-serif" font-size="13" lengthAdjust="spacingAndGlyphs" textLength="198" x="89" y="269.2305">Matches offers against pending</text><text fill="#000000" font-family="sans-serif" font-size="13" lengthAdjust="spacingAndGlyphs" textLength="217" x="89" y="284.541">PodSpecs in a single, synchronous</text><text fill="#000000" font-family="sans-serif" font-size="13" lengthAdjust="spacingAndGlyphs" textLength="36" x="89" y="299.8516">frame</text><text fill="#000000" font-family="sans-serif" font-size="13" lengthAdjust="spacingAndGlyphs" textLength="0" x="93" y="315.1621"/><text fill="#000000" font-family="sans-serif" font-size="13" lengthAdjust="spacingAndGlyphs" textLength="114" x="89" y="330.4727">The offer matches</text><polygon fill="#A80036" points="353.5,359.5254,363.5,363.5254,353.5,367.5254,357.5,363.5254" style="stroke: #A80036; stroke-width: 1.0;"/><line style="stroke: #A80036; stroke-width: 1.0;" x1="197.5" x2="359.5" y1="363.5254" y2="363.5254"/><text fill="#000000" font-family="sans-serif" font-size="13" lengthAdjust="spacingAndGlyphs" textLength="115" x="204.5" y="358.7832">Offer match result</text><polygon fill="#FBFB77" filter="url(#fakjxue29bcyr)" points="260,376.5254,470,376.5254,480,395.5254,470,414.5254,260,414.5254,250,395.5254,260,376.5254" style="stroke: #A80036; stroke-width: 1.0;"/><text fill="#000000" font-family="sans-serif" font-size="13" lengthAdjust="spacingAndGlyphs" textLength="206" x="262" y="393.0938">Persist PodRecord with details of</text><text fill="#000000" font-family="sans-serif" font-size="13" lengthAdjust="spacingAndGlyphs" textLength="42" x="262" y="408.4043">launch</text><polygon fill="#A80036" points="492.5,437.457,502.5,441.457,492.5,445.457,496.5,441.457" style="stroke: #A80036; stroke-width: 1.0;"/><line style="stroke: #A80036; stroke-width: 1.0;" x1="365.5" x2="498.5" y1="441.457" y2="441.457"/><text fill="#000000" font-family="sans-serif" font-size="13" lengthAdjust="spacingAndGlyphs" textLength="115" x="372.5" y="436.7148">Offer match result</text><polygon fill="#A80036" points="585.5,466.7676,595.5,470.7676,585.5,474.7676,589.5,470.7676" style="stroke: #A80036; stroke-width: 1.0;"/><line style="stroke: #A80036; stroke-width: 1.0;" x1="365.5" x2="591.5" y1="470.7676" y2="470.7676"/><text fill="#000000" font-family="sans-serif" font-size="13" lengthAdjust="spacingAndGlyphs" textLength="152" x="372.5" y="466.0254">PodStatus A#1 launched</text><polygon fill="#A80036" points="208.5,496.0781,198.5,500.0781,208.5,504.0781,204.5,500.0781" style="stroke: #A80036; stroke-width: 1.0;"/><line style="stroke: #A80036; stroke-width: 1.0;" x1="202.5" x2="503.5" y1="500.0781" y2="500.0781"/><text fill="#000000" font-family="sans-serif" font-size="13" lengthAdjust="spacingAndGlyphs" textLength="164" x="214.5" y="495.3359">Task for Pod A#1 Running</text><polygon fill="#A80036" points="353.5,525.3887,363.5,529.3887,353.5,533.3887,357.5,529.3887" style="stroke: #A80036; stroke-width: 1.0;"/><line style="stroke: #A80036; stroke-width: 1.0;" x1="197.5" x2="359.5" y1="529.3887" y2="529.3887"/><text fill="#000000" font-family="sans-serif" font-size="13" lengthAdjust="spacingAndGlyphs" textLength="144" x="204.5" y="524.6465">PodStatus A#1 running</text><polygon fill="#FBFB77" filter="url(#fakjxue29bcyr)" points="306,542.3887,425,542.3887,435,553.3887,425,565.3887,306,565.3887,296,553.3887,306,542.3887" style="stroke: #A80036; stroke-width: 1.0;"/><text fill="#000000" font-family="sans-serif" font-size="13" lengthAdjust="spacingAndGlyphs" textLength="115" x="308" y="558.957">Nothing to persist</text><polygon fill="#A80036" points="585.5,588.0098,595.5,592.0098,585.5,596.0098,589.5,592.0098" style="stroke: #A80036; stroke-width: 1.0;"/><line style="stroke: #A80036; stroke-width: 1.0;" x1="365.5" x2="591.5" y1="592.0098" y2="592.0098"/><text fill="#000000" font-family="sans-serif" font-size="13" lengthAdjust="spacingAndGlyphs" textLength="144" x="372.5" y="587.2676">PodStatus A#1 running</text><!--
@startuml
Participant FrameworkState
Participant Scheduler
Participant SchedulerStorage
Participant Mesos
Participant Orchestrator

FrameworkState -> Scheduler: Launch Pod A#1
hnote over Scheduler
  No record exists for A#1; enqueued to launch.
  Revive for role sent to Mesos
end hnote

Scheduler -> SchedulerStorage: Revive
hnote over SchedulerStorage
  Nothing to store; just forward
end hnote

SchedulerStorage -> Mesos: Revive

Mesos -> Scheduler: Offer
hnote over Scheduler
  Matches offers against pending
  PodSpecs in a single, synchronous
  frame

  The offer matches
end hnote

Scheduler -> SchedulerStorage: Offer match result
hnote over SchedulerStorage
  Persist PodRecord with details of
  launch
end hnote

SchedulerStorage -> Mesos: Offer match result
SchedulerStorage -> Orchestrator: PodStatus A#1 launched


Mesos -> Scheduler: Task for Pod A#1 Running
Scheduler -> SchedulerStorage: PodStatus A#1 running
hnote over SchedulerStorage
  Nothing to persist
end hnote
SchedulerStorage -> Orchestrator: PodStatus A#1 running
@enduml

PlantUML version 1.2018.13(Mon Nov 26 10:11:51 MST 2018)
(GPL source distribution)
Java Runtime: OpenJDK Runtime Environment
JVM: OpenJDK 64-Bit Server VM
Java Version: 11.0.2+9
Operating System: Mac OS X
OS Version: 10.13.6
Default Encoding: UTF-8
Language: en
Country: US
--></g></svg>