<?xml version="1.0" encoding="UTF-8" standalone="no"?><svg xmlns="http://www.w3.org/2000/svg" xmlns:xlink="http://www.w3.org/1999/xlink" contentScriptType="application/ecmascript" contentStyleType="text/css" height="795.0437px" preserveAspectRatio="none" style="width:589px;height:795px;" version="1.1" viewBox="0 0 589 795" width="589.5044px" zoomAndPan="magnify"><defs><filter height="300%" id="fqmaycmg6ljdb" width="300%" x="-1" y="-1"><feGaussianBlur result="blurOut" stdDeviation="1.749271137026239"/><feColorMatrix in="blurOut" result="blurOut2" type="matrix" values="0 0 0 0 0 0 0 0 0 0 0 0 0 0 0 0 0 0 .4 0"/><feOffset dx="3.498542274052478" dy="3.498542274052478" in="blurOut2" result="blurOut3"/><feBlend in="SourceGraphic" in2="blurOut3" mode="normal"/></filter></defs><g><!--cluster Framework--><path d="M14.8688,20.1166 C14.8688,17.4927 16.6181,15.7434 19.242,15.7434 C21.8659,15.7434 23.6152,17.4927 23.6152,20.1166 C23.6152,17.4927 25.3644,15.7434 27.9883,15.7434 C30.6122,15.7434 32.3615,17.4927 32.3615,20.1166 C32.3615,17.4927 34.1108,15.7434 36.7347,15.7434 C39.3586,15.7434 41.1079,17.4927 41.1079,20.1166 C41.1079,17.4927 42.8571,15.7434 45.481,15.7434 C48.105,15.7434 49.8542,17.4927 49.8542,20.1166 C49.8542,17.4927 51.6035,15.7434 54.2274,15.7434 C56.8513,15.7434 58.6006,17.4927 58.6006,20.1166 C58.6006,17.4927 60.3499,15.7434 62.9738,15.7434 C65.5977,15.7434 67.3469,17.4927 67.3469,20.1166 C67.3469,17.4927 69.0962,15.7434 71.7201,15.7434 C74.344,15.7434 76.0933,17.4927 76.0933,20.1166 C76.0933,17.4927 77.8426,15.7434 80.4665,15.7434 C83.0904,15.7434 84.8397,17.4927 84.8397,20.1166 C84.8397,17.4927 86.5889,15.7434 89.2128,15.7434 C91.8367,15.7434 93.586,17.4927 93.586,20.1166 C93.586,17.4927 95.3353,15.7434 97.9592,15.7434 C100.5831,15.7434 102.3324,17.4927 102.3324,20.1166 C102.3324,17.4927 104.0816,15.7434 106.7055,15.7434 C109.3294,15.7434 111.0787,17.4927 111.0787,20.1166 C111.0787,17.4927 112.828,15.7434 115.4519,15.7434 C118.0758,15.7434 119.8251,17.4927 119.8251,20.1166 C119.8251,17.4927 121.5743,15.7434 124.1983,15.7434 C126.8222,15.7434 128.5714,17.4927 128.5714,20.1166 C128.5714,17.4927 130.3207,15.7434 132.9446,15.7434 C135.5685,15.7434 137.3178,17.4927 137.3178,20.1166 C137.3178,17.4927 139.0671,15.7434 141.691,15.7434 C144.3149,15.7434 146.0641,17.4927 146.0641,20.1166 C146.0641,17.4927 147.8134,15.7434 150.4373,15.7434 C153.0612,15.7434 154.8105,17.4927 154.8105,20.1166 C154.8105,17.4927 156.5598,15.7434 159.1837,15.7434 C161.8076,15.7434 163.5569,17.4927 163.5569,20.1166 C163.5569,17.4927 165.3061,15.7434 167.93,15.7434 C170.5539,15.7434 172.3032,17.4927 172.3032,20.1166 C172.3032,17.4927 174.0525,15.7434 176.6764,15.7434 C179.3003,15.7434 181.0496,17.4927 181.0496,20.1166 C181.0496,17.4927 182.7988,15.7434 185.4227,15.7434 C188.0466,15.7434 189.7959,17.4927 189.7959,20.1166 C189.7959,17.4927 191.5452,15.7434 194.1691,15.7434 C196.793,15.7434 198.5423,17.4927 198.5423,20.1166 C198.5423,17.4927 200.2915,15.7434 202.9155,15.7434 C205.5394,15.7434 207.2886,17.4927 207.2886,20.1166 C207.2886,17.4927 209.0379,15.7434 211.6618,15.7434 C214.2857,15.7434 216.035,17.4927 216.035,20.1166 C216.035,17.4927 217.7843,15.7434 220.4082,15.7434 C223.0321,15.7434 224.7813,17.4927 224.7813,20.1166 C224.7813,17.4927 226.5306,15.7434 229.1545,15.7434 C231.7784,15.7434 233.5277,17.4927 233.5277,20.1166 C233.5277,17.4927 235.277,15.7434 237.9009,15.7434 C240.5248,15.7434 242.2741,17.4927 242.2741,20.1166 C242.2741,17.4927 244.0233,15.7434 246.6472,15.7434 C249.2711,15.7434 251.0204,17.4927 251.0204,20.1166 C251.0204,17.4927 252.7697,15.7434 255.3936,15.7434 C258.0175,15.7434 259.7668,17.4927 259.7668,20.1166 C259.7668,17.4927 261.516,15.7434 264.1399,15.7434 C266.7638,15.7434 268.5131,17.4927 268.5131,20.1166 C268.5131,17.4927 270.2624,15.7434 272.8863,15.7434 C275.5102,15.7434 277.2595,17.4927 277.2595,20.1166 C277.2595,17.4927 279.0087,15.7434 281.6327,15.7434 C284.2566,15.7434 286.0058,17.4927 286.0058,20.1166 C286.0058,17.4927 287.7551,15.7434 290.379,15.7434 C293.0029,15.7434 294.7522,17.4927 294.7522,20.1166 C294.7522,17.4927 296.5015,15.7434 299.1254,15.7434 C301.7493,15.7434 303.4985,17.4927 303.4985,20.1166 C303.4985,17.4927 305.2478,15.7434 307.8717,15.7434 C310.4956,15.7434 312.2449,17.4927 312.2449,20.1166 C312.2449,17.4927 313.9942,15.7434 316.6181,15.7434 C319.242,15.7434 320.9913,17.4927 320.9913,20.1166 C320.9913,17.4927 322.7405,15.7434 325.3644,15.7434 C327.9883,15.7434 329.7376,17.4927 329.7376,20.1166 C329.7376,17.4927 331.4869,15.7434 334.1108,15.7434 C336.7347,15.7434 338.484,17.4927 338.484,20.1166 C338.484,17.4927 340.2332,15.7434 342.8571,15.7434 C345.481,15.7434 347.2303,17.4927 347.2303,20.1166 C347.2303,17.4927 348.9796,15.7434 351.6035,15.7434 C354.2274,15.7434 355.9767,17.4927 355.9767,20.1166 C355.9767,17.4927 357.7259,15.7434 360.3499,15.7434 C362.9738,15.7434 364.723,17.4927 364.723,20.1166 C364.723,17.4927 366.4723,15.7434 369.0962,15.7434 C371.7201,15.7434 373.4694,17.4927 373.4694,20.1166 C373.4694,17.4927 375.2187,15.7434 377.8426,15.7434 C380.4665,15.7434 382.2157,17.4927 382.2157,20.1166 C382.2157,17.4927 383.965,15.7434 386.5889,15.7434 C389.2128,15.7434 390.9621,17.4927 390.9621,20.1166 C390.9621,17.4927 392.7114,15.7434 395.3353,15.7434 C397.9592,15.7434 399.7085,17.4927 399.7085,20.1166 C399.7085,17.4927 401.4577,15.7434 404.0816,15.7434 C406.7055,15.7434 408.4548,17.4927 408.4548,20.1166 C408.4548,17.4927 410.2041,15.7434 412.828,15.7434 C415.4519,15.7434 417.2012,17.4927 417.2012,20.1166 C417.2012,17.4927 418.9504,15.7434 421.5743,15.7434 C424.1983,15.7434 425.9475,17.4927 425.9475,20.1166 C425.9475,17.4927 427.6968,15.7434 430.3207,15.7434 C432.9446,15.7434 434.6939,17.4927 434.6939,20.1166 C434.6939,17.4927 436.4431,15.7434 439.0671,15.7434 C441.691,15.7434 443.4402,17.4927 443.4402,20.1166 C443.4402,17.4927 445.1895,15.7434 447.8134,15.7434 C450.4373,15.7434 452.1866,17.4927 452.1866,20.1166 C452.1866,17.4927 453.9359,15.7434 456.5598,15.7434 C459.1837,15.7434 460.9329,17.4927 460.9329,20.1166 C463.5569,20.1166 465.3061,21.8659 465.3061,24.4898 C465.3061,27.1137 463.5569,28.863 460.9329,28.863 C463.5569,28.863 465.3061,30.6122 465.3061,33.2362 C465.3061,35.8601 463.5569,37.6093 460.9329,37.6093 C463.5569,37.6093 465.3061,39.3586 465.3061,41.9825 C465.3061,44.6064 463.5569,46.3557 460.9329,46.3557 C463.5569,46.3557 465.3061,48.105 465.3061,50.7289 C465.3061,53.3528 463.5569,55.102 460.9329,55.102 C463.5569,55.102 465.3061,56.8513 465.3061,59.4752 C465.3061,62.0991 463.5569,63.8484 460.9329,63.8484 C463.5569,63.8484 465.3061,65.5977 465.3061,68.2216 C465.3061,70.8455 463.5569,72.5948 460.9329,72.5948 C463.5569,72.5948 465.3061,74.344 465.3061,76.9679 C465.3061,79.5918 463.5569,81.3411 460.9329,81.3411 C463.5569,81.3411 465.3061,83.0904 465.3061,85.7143 C465.3061,88.3382 463.5569,90.0875 460.9329,90.0875 C463.5569,90.0875 465.3061,91.8367 465.3061,94.4606 C465.3061,97.0845 463.5569,98.8338 460.9329,98.8338 C463.5569,98.8338 465.3061,100.5831 465.3061,103.207 C465.3061,105.8309 463.5569,107.5802 460.9329,107.5802 C463.5569,107.5802 465.3061,109.3294 465.3061,111.9534 C465.3061,114.5773 463.5569,116.3265 460.9329,116.3265 C463.5569,116.3265 465.3061,118.0758 465.3061,120.6997 C465.3061,123.3236 463.5569,125.0729 460.9329,125.0729 C463.5569,125.0729 465.3061,126.8222 465.3061,129.4461 C465.3061,132.07 463.5569,133.8192 460.9329,133.8192 C463.5569,133.8192 465.3061,135.5685 465.3061,138.1924 C465.3061,140.8163 463.5569,142.5656 460.9329,142.5656 C463.5569,142.5656 465.3061,144.3149 465.3061,146.9388 C465.3061,149.5627 463.5569,151.312 460.9329,151.312 C463.5569,151.312 465.3061,153.0612 465.3061,155.6851 C465.3061,158.309 463.5569,160.0583 460.9329,160.0583 C463.5569,160.0583 465.3061,161.8076 465.3061,164.4315 C465.3061,167.0554 463.5569,168.8047 460.9329,168.8047 C463.5569,168.8047 465.3061,170.5539 465.3061,173.1778 C465.3061,175.8017 463.5569,177.551 460.9329,177.551 C463.5569,177.551 465.3061,179.3003 465.3061,181.9242 C465.3061,184.5481 463.5569,186.2974 460.9329,186.2974 C463.5569,186.2974 465.3061,188.0466 465.3061,190.6706 C465.3061,193.2945 463.5569,195.0437 460.9329,195.0437 C463.5569,195.0437 465.3061,196.793 465.3061,199.4169 C465.3061,202.0408 463.5569,203.7901 460.9329,203.7901 C463.5569,203.7901 465.3061,205.5394 465.3061,208.1633 C465.3061,210.7872 463.5569,212.5364 460.9329,212.5364 C463.5569,212.5364 465.3061,214.2857 465.3061,216.9096 C465.3061,219.5335 463.5569,221.2828 460.9329,221.2828 C463.5569,221.2828 465.3061,223.0321 465.3061,225.656 C465.3061,228.2799 463.5569,230.0292 460.9329,230.0292 C463.5569,230.0292 465.3061,231.7784 465.3061,234.4023 C465.3061,237.0262 463.5569,238.7755 460.9329,238.7755 C463.5569,238.7755 465.3061,240.5248 465.3061,243.1487 C465.3061,245.7726 463.5569,247.5219 460.9329,247.5219 C463.5569,247.5219 465.3061,249.2711 465.3061,251.895 C465.3061,254.519 463.5569,256.2682 460.9329,256.2682 C463.5569,256.2682 465.3061,258.0175 465.3061,260.6414 C465.3061,263.2653 463.5569,265.0146 460.9329,265.0146 C463.5569,265.0146 465.3061,266.7638 465.3061,269.3878 C465.3061,272.0117 463.5569,273.7609 460.9329,273.7609 C463.5569,273.7609 465.3061,275.5102 465.3061,278.1341 C465.3061,280.758 463.5569,282.5073 460.9329,282.5073 C463.5569,282.5073 465.3061,284.2566 465.3061,286.8805 C465.3061,289.5044 463.5569,291.2536 460.9329,291.2536 C463.5569,291.2536 465.3061,293.0029 465.3061,295.6268 C465.3061,298.2507 463.5569,300 460.9329,300 C463.5569,300 465.3061,301.7493 465.3061,304.3732 C465.3061,306.9971 463.5569,308.7464 460.9329,308.7464 C463.5569,308.7464 465.3061,310.4956 465.3061,313.1195 C465.3061,315.7434 463.5569,317.4927 460.9329,317.4927 C463.5569,317.4927 465.3061,319.242 465.3061,321.8659 C465.3061,324.4898 463.5569,326.2391 460.9329,326.2391 C463.5569,326.2391 465.3061,327.9883 465.3061,330.6122 C465.3061,333.2362 463.5569,334.9854 460.9329,334.9854 C463.5569,334.9854 465.3061,336.7347 465.3061,339.3586 C465.3061,341.9825 463.5569,343.7318 460.9329,343.7318 C463.5569,343.7318 465.3061,345.481 465.3061,348.105 C465.3061,350.7289 463.5569,352.4781 460.9329,352.4781 C463.5569,352.4781 465.3061,354.2274 465.3061,356.8513 C465.3061,359.4752 463.5569,361.2245 460.9329,361.2245 C463.5569,361.2245 465.3061,362.9738 465.3061,365.5977 C465.3061,368.2216 463.5569,369.9708 460.9329,369.9708 C463.5569,369.9708 465.3061,371.7201 465.3061,374.344 C465.3061,376.9679 463.5569,378.7172 460.9329,378.7172 C463.5569,378.7172 465.3061,380.4665 465.3061,383.0904 C465.3061,385.7143 463.5569,387.4636 460.9329,387.4636 C463.5569,387.4636 465.3061,389.2128 465.3061,391.8367 C465.3061,394.4606 463.5569,396.2099 460.9329,396.2099 C463.5569,396.2099 465.3061,397.9592 465.3061,400.5831 C465.3061,403.207 463.5569,404.9563 460.9329,404.9563 C463.5569,404.9563 465.3061,406.7055 465.3061,409.3294 C465.3061,411.9534 463.5569,413.7026 460.9329,413.7026 C463.5569,413.7026 465.3061,415.4519 465.3061,418.0758 C465.3061,420.6997 463.5569,422.449 460.9329,422.449 C463.5569,422.449 465.3061,424.1983 465.3061,426.8222 C465.3061,429.4461 463.5569,431.1953 460.9329,431.1953 C463.5569,431.1953 465.3061,432.9446 465.3061,435.5685 C465.3061,438.1924 463.5569,439.9417 460.9329,439.9417 C463.5569,439.9417 465.3061,441.691 465.3061,444.3149 C465.3061,446.9388 463.5569,448.688 460.9329,448.688 C463.5569,448.688 465.3061,450.4373 465.3061,453.0612 C465.3061,455.6851 463.5569,457.4344 460.9329,457.4344 C463.5569,457.4344 465.3061,459.1837 465.3061,461.8076 C465.3061,464.4315 463.5569,466.1808 460.9329,466.1808 C463.5569,466.1808 465.3061,467.93 465.3061,470.5539 C465.3061,473.1778 463.5569,474.9271 460.9329,474.9271 C463.5569,474.9271 465.3061,476.6764 465.3061,479.3003 C465.3061,481.9242 463.5569,483.6735 460.9329,483.6735 C463.5569,483.6735 465.3061,485.4227 465.3061,488.0466 C465.3061,490.6706 463.5569,492.4198 460.9329,492.4198 C463.5569,492.4198 465.3061,494.1691 465.3061,496.793 C465.3061,499.4169 463.5569,501.1662 460.9329,501.1662 C463.5569,501.1662 465.3061,502.9155 465.3061,505.5394 C465.3061,508.1633 463.5569,509.9125 460.9329,509.9125 C463.5569,509.9125 465.3061,511.6618 465.3061,514.2857 C465.3061,516.9096 463.5569,518.6589 460.9329,518.6589 C463.5569,518.6589 465.3061,520.4082 465.3061,523.0321 C465.3061,525.656 463.5569,527.4052 460.9329,527.4052 C463.5569,527.4052 465.3061,529.1545 465.3061,531.7784 C465.3061,534.4023 463.5569,536.1516 460.9329,536.1516 C463.5569,536.1516 465.3061,537.9009 465.3061,540.5248 C465.3061,543.1487 463.5569,544.898 460.9329,544.898 C463.5569,544.898 465.3061,546.6472 465.3061,549.2711 C465.3061,551.895 463.5569,553.6443 460.9329,553.6443 C463.5569,553.6443 465.3061,555.3936 465.3061,558.0175 C465.3061,560.6414 463.5569,562.3907 460.9329,562.3907 C463.5569,562.3907 465.3061,564.1399 465.3061,566.7638 C465.3061,569.3878 463.5569,571.137 460.9329,571.137 C463.5569,571.137 465.3061,572.8863 465.3061,575.5102 C465.3061,578.1341 463.5569,579.8834 460.9329,579.8834 C463.5569,579.8834 465.3061,581.6327 465.3061,584.2566 C465.3061,586.8805 463.5569,588.6297 460.9329,588.6297 C463.5569,588.6297 465.3061,590.379 465.3061,593.0029 C465.3061,595.6268 463.5569,597.3761 460.9329,597.3761 C463.5569,597.3761 465.3061,599.1254 465.3061,601.7493 C465.3061,604.3732 463.5569,606.1224 460.9329,606.1224 C460.9329,608.7464 458.309,610.4956 456.5598,610.4956 C453.9359,610.4956 452.1866,608.7464 452.1866,606.1224 C452.1866,608.7464 449.5627,610.4956 447.8134,610.4956 C445.1895,610.4956 443.4402,608.7464 443.4402,606.1224 C443.4402,608.7464 440.8163,610.4956 439.0671,610.4956 C436.4431,610.4956 434.6939,608.7464 434.6939,606.1224 C434.6939,608.7464 432.07,610.4956 430.3207,610.4956 C427.6968,610.4956 425.9475,608.7464 425.9475,606.1224 C425.9475,608.7464 423.3236,610.4956 421.5743,610.4956 C418.9504,610.4956 417.2012,608.7464 417.2012,606.1224 C417.2012,608.7464 414.5773,610.4956 412.828,610.4956 C410.2041,610.4956 408.4548,608.7464 408.4548,606.1224 C408.4548,608.7464 405.8309,610.4956 404.0816,610.4956 C401.4577,610.4956 399.7085,608.7464 399.7085,606.1224 C399.7085,608.7464 397.0845,610.4956 395.3353,610.4956 C392.7114,610.4956 390.9621,608.7464 390.9621,606.1224 C390.9621,608.7464 388.3382,610.4956 386.5889,610.4956 C383.965,610.4956 382.2157,608.7464 382.2157,606.1224 C382.2157,608.7464 379.5918,610.4956 377.8426,610.4956 C375.2187,610.4956 373.4694,608.7464 373.4694,606.1224 C373.4694,608.7464 370.8455,610.4956 369.0962,610.4956 C366.4723,610.4956 364.723,608.7464 364.723,606.1224 C364.723,608.7464 362.0991,610.4956 360.3499,610.4956 C357.7259,610.4956 355.9767,608.7464 355.9767,606.1224 C355.9767,608.7464 353.3528,610.4956 351.6035,610.4956 C348.9796,610.4956 347.2303,608.7464 347.2303,606.1224 C347.2303,608.7464 344.6064,610.4956 342.8571,610.4956 C340.2332,610.4956 338.484,608.7464 338.484,606.1224 C338.484,608.7464 335.8601,610.4956 334.1108,610.4956 C331.4869,610.4956 329.7376,608.7464 329.7376,606.1224 C329.7376,608.7464 327.1137,610.4956 325.3644,610.4956 C322.7405,610.4956 320.9913,608.7464 320.9913,606.1224 C320.9913,608.7464 318.3673,610.4956 316.6181,610.4956 C313.9942,610.4956 312.2449,608.7464 312.2449,606.1224 C312.2449,608.7464 309.621,610.4956 307.8717,610.4956 C305.2478,610.4956 303.4985,608.7464 303.4985,606.1224 C303.4985,608.7464 300.8746,610.4956 299.1254,610.4956 C296.5015,610.4956 294.7522,608.7464 294.7522,606.1224 C294.7522,608.7464 292.1283,610.4956 290.379,610.4956 C287.7551,610.4956 286.0058,608.7464 286.0058,606.1224 C286.0058,608.7464 283.3819,610.4956 281.6327,610.4956 C279.0087,610.4956 277.2595,608.7464 277.2595,606.1224 C277.2595,608.7464 274.6356,610.4956 272.8863,610.4956 C270.2624,610.4956 268.5131,608.7464 268.5131,606.1224 C268.5131,608.7464 265.8892,610.4956 264.1399,610.4956 C261.516,610.4956 259.7668,608.7464 259.7668,606.1224 C259.7668,608.7464 257.1429,610.4956 255.3936,610.4956 C252.7697,610.4956 251.0204,608.7464 251.0204,606.1224 C251.0204,608.7464 248.3965,610.4956 246.6472,610.4956 C244.0233,610.4956 242.2741,608.7464 242.2741,606.1224 C242.2741,608.7464 239.6501,610.4956 237.9009,610.4956 C235.277,610.4956 233.5277,608.7464 233.5277,606.1224 C233.5277,608.7464 230.9038,610.4956 229.1545,610.4956 C226.5306,610.4956 224.7813,608.7464 224.7813,606.1224 C224.7813,608.7464 222.1574,610.4956 220.4082,610.4956 C217.7843,610.4956 216.035,608.7464 216.035,606.1224 C216.035,608.7464 213.4111,610.4956 211.6618,610.4956 C209.0379,610.4956 207.2886,608.7464 207.2886,606.1224 C207.2886,608.7464 204.6647,610.4956 202.9155,610.4956 C200.2915,610.4956 198.5423,608.7464 198.5423,606.1224 C198.5423,608.7464 195.9184,610.4956 194.1691,610.4956 C191.5452,610.4956 189.7959,608.7464 189.7959,606.1224 C189.7959,608.7464 187.172,610.4956 185.4227,610.4956 C182.7988,610.4956 181.0496,608.7464 181.0496,606.1224 C181.0496,608.7464 178.4257,610.4956 176.6764,610.4956 C174.0525,610.4956 172.3032,608.7464 172.3032,606.1224 C172.3032,608.7464 169.6793,610.4956 167.93,610.4956 C165.3061,610.4956 163.5569,608.7464 163.5569,606.1224 C163.5569,608.7464 160.9329,610.4956 159.1837,610.4956 C156.5598,610.4956 154.8105,608.7464 154.8105,606.1224 C154.8105,608.7464 152.1866,610.4956 150.4373,610.4956 C147.8134,610.4956 146.0641,608.7464 146.0641,606.1224 C146.0641,608.7464 143.4402,610.4956 141.691,610.4956 C139.0671,610.4956 137.3178,608.7464 137.3178,606.1224 C137.3178,608.7464 134.6939,610.4956 132.9446,610.4956 C130.3207,610.4956 128.5714,608.7464 128.5714,606.1224 C128.5714,608.7464 125.9475,610.4956 124.1983,610.4956 C121.5743,610.4956 119.8251,608.7464 119.8251,606.1224 C119.8251,608.7464 117.2012,610.4956 115.4519,610.4956 C112.828,610.4956 111.0787,608.7464 111.0787,606.1224 C111.0787,608.7464 108.4548,610.4956 106.7055,610.4956 C104.0816,610.4956 102.3324,608.7464 102.3324,606.1224 C102.3324,608.7464 99.7085,610.4956 97.9592,610.4956 C95.3353,610.4956 93.586,608.7464 93.586,606.1224 C93.586,608.7464 90.9621,610.4956 89.2128,610.4956 C86.5889,610.4956 84.8397,608.7464 84.8397,606.1224 C84.8397,608.7464 82.2157,610.4956 80.4665,610.4956 C77.8426,610.4956 76.0933,608.7464 76.0933,606.1224 C76.0933,608.7464 73.4694,610.4956 71.7201,610.4956 C69.0962,610.4956 67.3469,608.7464 67.3469,606.1224 C67.3469,608.7464 64.723,610.4956 62.9738,610.4956 C60.3499,610.4956 58.6006,608.7464 58.6006,606.1224 C58.6006,608.7464 55.9767,610.4956 54.2274,610.4956 C51.6035,610.4956 49.8542,608.7464 49.8542,606.1224 C49.8542,608.7464 47.2303,610.4956 45.481,610.4956 C42.8571,610.4956 41.1079,608.7464 41.1079,606.1224 C41.1079,608.7464 38.484,610.4956 36.7347,610.4956 C34.1108,610.4956 32.3615,608.7464 32.3615,606.1224 C32.3615,608.7464 29.7376,610.4956 27.9883,610.4956 C25.3644,610.4956 23.6152,608.7464 23.6152,606.1224 C23.6152,608.7464 20.9913,610.4956 19.242,610.4956 C16.6181,610.4956 14.8688,608.7464 14.8688,606.1224 C12.2449,606.1224 10.4956,604.3732 10.4956,601.7493 C10.4956,599.1254 12.2449,597.3761 14.8688,597.3761 C12.2449,597.3761 10.4956,595.6268 10.4956,593.0029 C10.4956,590.379 12.2449,588.6297 14.8688,588.6297 C12.2449,588.6297 10.4956,586.8805 10.4956,584.2566 C10.4956,581.6327 12.2449,579.8834 14.8688,579.8834 C12.2449,579.8834 10.4956,578.1341 10.4956,575.5102 C10.4956,572.8863 12.2449,571.137 14.8688,571.137 C12.2449,571.137 10.4956,569.3878 10.4956,566.7638 C10.4956,564.1399 12.2449,562.3907 14.8688,562.3907 C12.2449,562.3907 10.4956,560.6414 10.4956,558.0175 C10.4956,555.3936 12.2449,553.6443 14.8688,553.6443 C12.2449,553.6443 10.4956,551.895 10.4956,549.2711 C10.4956,546.6472 12.2449,544.898 14.8688,544.898 C12.2449,544.898 10.4956,543.1487 10.4956,540.5248 C10.4956,537.9009 12.2449,536.1516 14.8688,536.1516 C12.2449,536.1516 10.4956,534.4023 10.4956,531.7784 C10.4956,529.1545 12.2449,527.4052 14.8688,527.4052 C12.2449,527.4052 10.4956,525.656 10.4956,523.0321 C10.4956,520.4082 12.2449,518.6589 14.8688,518.6589 C12.2449,518.6589 10.4956,516.9096 10.4956,514.2857 C10.4956,511.6618 12.2449,509.9125 14.8688,509.9125 C12.2449,509.9125 10.4956,508.1633 10.4956,505.5394 C10.4956,502.9155 12.2449,501.1662 14.8688,501.1662 C12.2449,501.1662 10.4956,499.4169 10.4956,496.793 C10.4956,494.1691 12.2449,492.4198 14.8688,492.4198 C12.2449,492.4198 10.4956,490.6706 10.4956,488.0466 C10.4956,485.4227 12.2449,483.6735 14.8688,483.6735 C12.2449,483.6735 10.4956,481.9242 10.4956,479.3003 C10.4956,476.6764 12.2449,474.9271 14.8688,474.9271 C12.2449,474.9271 10.4956,473.1778 10.4956,470.5539 C10.4956,467.93 12.2449,466.1808 14.8688,466.1808 C12.2449,466.1808 10.4956,464.4315 10.4956,461.8076 C10.4956,459.1837 12.2449,457.4344 14.8688,457.4344 C12.2449,457.4344 10.4956,455.6851 10.4956,453.0612 C10.4956,450.4373 12.2449,448.688 14.8688,448.688 C12.2449,448.688 10.4956,446.9388 10.4956,444.3149 C10.4956,441.691 12.2449,439.9417 14.8688,439.9417 C12.2449,439.9417 10.4956,438.1924 10.4956,435.5685 C10.4956,432.9446 12.2449,431.1953 14.8688,431.1953 C12.2449,431.1953 10.4956,429.4461 10.4956,426.8222 C10.4956,424.1983 12.2449,422.449 14.8688,422.449 C12.2449,422.449 10.4956,420.6997 10.4956,418.0758 C10.4956,415.4519 12.2449,413.7026 14.8688,413.7026 C12.2449,413.7026 10.4956,411.9534 10.4956,409.3294 C10.4956,406.7055 12.2449,404.9563 14.8688,404.9563 C12.2449,404.9563 10.4956,403.207 10.4956,400.5831 C10.4956,397.9592 12.2449,396.2099 14.8688,396.2099 C12.2449,396.2099 10.4956,394.4606 10.4956,391.8367 C10.4956,389.2128 12.2449,387.4636 14.8688,387.4636 C12.2449,387.4636 10.4956,385.7143 10.4956,383.0904 C10.4956,380.4665 12.2449,378.7172 14.8688,378.7172 C12.2449,378.7172 10.4956,376.9679 10.4956,374.344 C10.4956,371.7201 12.2449,369.9708 14.8688,369.9708 C12.2449,369.9708 10.4956,368.2216 10.4956,365.5977 C10.4956,362.9738 12.2449,361.2245 14.8688,361.2245 C12.2449,361.2245 10.4956,359.4752 10.4956,356.8513 C10.4956,354.2274 12.2449,352.4781 14.8688,352.4781 C12.2449,352.4781 10.4956,350.7289 10.4956,348.105 C10.4956,345.481 12.2449,343.7318 14.8688,343.7318 C12.2449,343.7318 10.4956,341.9825 10.4956,339.3586 C10.4956,336.7347 12.2449,334.9854 14.8688,334.9854 C12.2449,334.9854 10.4956,333.2362 10.4956,330.6122 C10.4956,327.9883 12.2449,326.2391 14.8688,326.2391 C12.2449,326.2391 10.4956,324.4898 10.4956,321.8659 C10.4956,319.242 12.2449,317.4927 14.8688,317.4927 C12.2449,317.4927 10.4956,315.7434 10.4956,313.1195 C10.4956,310.4956 12.2449,308.7464 14.8688,308.7464 C12.2449,308.7464 10.4956,306.9971 10.4956,304.3732 C10.4956,301.7493 12.2449,300 14.8688,300 C12.2449,300 10.4956,298.2507 10.4956,295.6268 C10.4956,293.0029 12.2449,291.2536 14.8688,291.2536 C12.2449,291.2536 10.4956,289.5044 10.4956,286.8805 C10.4956,284.2566 12.2449,282.5073 14.8688,282.5073 C12.2449,282.5073 10.4956,280.758 10.4956,278.1341 C10.4956,275.5102 12.2449,273.7609 14.8688,273.7609 C12.2449,273.7609 10.4956,272.0117 10.4956,269.3878 C10.4956,266.7638 12.2449,265.0146 14.8688,265.0146 C12.2449,265.0146 10.4956,263.2653 10.4956,260.6414 C10.4956,258.0175 12.2449,256.2682 14.8688,256.2682 C12.2449,256.2682 10.4956,254.519 10.4956,251.895 C10.4956,249.2711 12.2449,247.5219 14.8688,247.5219 C12.2449,247.5219 10.4956,245.7726 10.4956,243.1487 C10.4956,240.5248 12.2449,238.7755 14.8688,238.7755 C12.2449,238.7755 10.4956,237.0262 10.4956,234.4023 C10.4956,231.7784 12.2449,230.0292 14.8688,230.0292 C12.2449,230.0292 10.4956,228.2799 10.4956,225.656 C10.4956,223.0321 12.2449,221.2828 14.8688,221.2828 C12.2449,221.2828 10.4956,219.5335 10.4956,216.9096 C10.4956,214.2857 12.2449,212.5364 14.8688,212.5364 C12.2449,212.5364 10.4956,210.7872 10.4956,208.1633 C10.4956,205.5394 12.2449,203.7901 14.8688,203.7901 C12.2449,203.7901 10.4956,202.0408 10.4956,199.4169 C10.4956,196.793 12.2449,195.0437 14.8688,195.0437 C12.2449,195.0437 10.4956,193.2945 10.4956,190.6706 C10.4956,188.0466 12.2449,186.2974 14.8688,186.2974 C12.2449,186.2974 10.4956,184.5481 10.4956,181.9242 C10.4956,179.3003 12.2449,177.551 14.8688,177.551 C12.2449,177.551 10.4956,175.8017 10.4956,173.1778 C10.4956,170.5539 12.2449,168.8047 14.8688,168.8047 C12.2449,168.8047 10.4956,167.0554 10.4956,164.4315 C10.4956,161.8076 12.2449,160.0583 14.8688,160.0583 C12.2449,160.0583 10.4956,158.309 10.4956,155.6851 C10.4956,153.0612 12.2449,151.312 14.8688,151.312 C12.2449,151.312 10.4956,149.5627 10.4956,146.9388 C10.4956,144.3149 12.2449,142.5656 14.8688,142.5656 C12.2449,142.5656 10.4956,140.8163 10.4956,138.1924 C10.4956,135.5685 12.2449,133.8192 14.8688,133.8192 C12.2449,133.8192 10.4956,132.07 10.4956,129.4461 C10.4956,126.8222 12.2449,125.0729 14.8688,125.0729 C12.2449,125.0729 10.4956,123.3236 10.4956,120.6997 C10.4956,118.0758 12.2449,116.3265 14.8688,116.3265 C12.2449,116.3265 10.4956,114.5773 10.4956,111.9534 C10.4956,109.3294 12.2449,107.5802 14.8688,107.5802 C12.2449,107.5802 10.4956,105.8309 10.4956,103.207 C10.4956,100.5831 12.2449,98.8338 14.8688,98.8338 C12.2449,98.8338 10.4956,97.0845 10.4956,94.4606 C10.4956,91.8367 12.2449,90.0875 14.8688,90.0875 C12.2449,90.0875 10.4956,88.3382 10.4956,85.7143 C10.4956,83.0904 12.2449,81.3411 14.8688,81.3411 C12.2449,81.3411 10.4956,79.5918 10.4956,76.9679 C10.4956,74.344 12.2449,72.5948 14.8688,72.5948 C12.2449,72.5948 10.4956,70.8455 10.4956,68.2216 C10.4956,65.5977 12.2449,63.8484 14.8688,63.8484 C12.2449,63.8484 10.4956,62.0991 10.4956,59.4752 C10.4956,56.8513 12.2449,55.102 14.8688,55.102 C12.2449,55.102 10.4956,53.3528 10.4956,50.7289 C10.4956,48.105 12.2449,46.3557 14.8688,46.3557 C12.2449,46.3557 10.4956,44.6064 10.4956,41.9825 C10.4956,39.3586 12.2449,37.6093 14.8688,37.6093 C12.2449,37.6093 10.4956,35.8601 10.4956,33.2362 C10.4956,30.6122 12.2449,28.863 14.8688,28.863 C12.2449,28.863 10.4956,27.1137 10.4956,24.4898 C10.4956,21.8659 12.2449,20.1166 14.8688,20.1166 " fill="#FFFFFF" filter="url(#fqmaycmg6ljdb)" style="stroke: #000000; stroke-width: 1.3119533527696792;"/><text fill="#000000" font-family="sans-serif" font-size="12.2449" font-weight="bold" lengthAdjust="spacingAndGlyphs" textLength="69.9708" x="201.1662" y="37.2028">Framework</text><!--cluster UnifiedScheduler--><polygon fill="#FFFFFF" filter="url(#fqmaycmg6ljdb)" points="19.242,179.3003,130.3207,179.3003,136.4431,198.9693,453.0612,198.9693,453.0612,459.1837,19.242,459.1837,19.242,179.3003" style="stroke: #000000; stroke-width: 1.3119533527696792;"/><line style="stroke: #000000; stroke-width: 1.3119533527696792;" x1="19.242" x2="136.4431" y1="198.9693" y2="198.9693"/><text fill="#000000" font-family="sans-serif" font-size="12.2449" font-weight="bold" lengthAdjust="spacingAndGlyphs" textLength="105.8309" x="22.7405" y="192.8879">UnifiedScheduler</text><!--cluster Mesos--><path d="M469.6793,520.4082 C469.6793,517.7843 471.4286,516.035 474.0525,516.035 C476.6764,516.035 478.4257,517.7843 478.4257,520.4082 C478.4257,517.7843 480.1749,516.035 482.7988,516.035 C485.4227,516.035 487.172,517.7843 487.172,520.4082 C487.172,517.7843 488.9213,516.035 491.5452,516.035 C494.1691,516.035 495.9184,517.7843 495.9184,520.4082 C495.9184,517.7843 497.6676,516.035 500.2915,516.035 C502.9155,516.035 504.6647,517.7843 504.6647,520.4082 C504.6647,517.7843 506.414,516.035 509.0379,516.035 C511.6618,516.035 513.4111,517.7843 513.4111,520.4082 C513.4111,517.7843 515.1603,516.035 517.7843,516.035 C520.4082,516.035 522.1574,517.7843 522.1574,520.4082 C522.1574,517.7843 523.9067,516.035 526.5306,516.035 C529.1545,516.035 530.9038,517.7843 530.9038,520.4082 C530.9038,517.7843 532.6531,516.035 535.277,516.035 C537.9009,516.035 539.6501,517.7843 539.6501,520.4082 C539.6501,517.7843 541.3994,516.035 544.0233,516.035 C546.6472,516.035 548.3965,517.7843 548.3965,520.4082 C548.3965,517.7843 550.1458,516.035 552.7697,516.035 C555.3936,516.035 557.1429,517.7843 557.1429,520.4082 C557.1429,517.7843 558.8921,516.035 561.516,516.035 C564.1399,516.035 565.8892,517.7843 565.8892,520.4082 C565.8892,517.7843 567.6385,516.035 570.2624,516.035 C572.8863,516.035 574.6356,517.7843 574.6356,520.4082 C577.2595,520.4082 579.0087,522.1574 579.0087,524.7813 C579.0087,527.4052 577.2595,529.1545 574.6356,529.1545 C577.2595,529.1545 579.0087,530.9038 579.0087,533.5277 C579.0087,536.1516 577.2595,537.9009 574.6356,537.9009 C577.2595,537.9009 579.0087,539.6501 579.0087,542.2741 C579.0087,544.898 577.2595,546.6472 574.6356,546.6472 C577.2595,546.6472 579.0087,548.3965 579.0087,551.0204 C579.0087,553.6443 577.2595,555.3936 574.6356,555.3936 C577.2595,555.3936 579.0087,557.1429 579.0087,559.7668 C579.0087,562.3907 577.2595,564.1399 574.6356,564.1399 C577.2595,564.1399 579.0087,565.8892 579.0087,568.5131 C579.0087,571.137 577.2595,572.8863 574.6356,572.8863 C577.2595,572.8863 579.0087,574.6356 579.0087,577.2595 C579.0087,579.8834 577.2595,581.6327 574.6356,581.6327 C577.2595,581.6327 579.0087,583.3819 579.0087,586.0058 C579.0087,588.6297 577.2595,590.379 574.6356,590.379 C577.2595,590.379 579.0087,592.1283 579.0087,594.7522 C579.0087,597.3761 577.2595,599.1254 574.6356,599.1254 C577.2595,599.1254 579.0087,600.8746 579.0087,603.4985 C579.0087,606.1224 577.2595,607.8717 574.6356,607.8717 C577.2595,607.8717 579.0087,609.621 579.0087,612.2449 C579.0087,614.8688 577.2595,616.6181 574.6356,616.6181 C577.2595,616.6181 579.0087,618.3673 579.0087,620.9913 C579.0087,623.6152 577.2595,625.3644 574.6356,625.3644 C577.2595,625.3644 579.0087,627.1137 579.0087,629.7376 C579.0087,632.3615 577.2595,634.1108 574.6356,634.1108 C577.2595,634.1108 579.0087,635.8601 579.0087,638.484 C579.0087,641.1079 577.2595,642.8571 574.6356,642.8571 C577.2595,642.8571 579.0087,644.6064 579.0087,647.2303 C579.0087,649.8542 577.2595,651.6035 574.6356,651.6035 C577.2595,651.6035 579.0087,653.3528 579.0087,655.9767 C579.0087,658.6006 577.2595,660.3499 574.6356,660.3499 C577.2595,660.3499 579.0087,662.0991 579.0087,664.723 C579.0087,667.3469 577.2595,669.0962 574.6356,669.0962 C577.2595,669.0962 579.0087,670.8455 579.0087,673.4694 C579.0087,676.0933 577.2595,677.8426 574.6356,677.8426 C577.2595,677.8426 579.0087,679.5918 579.0087,682.2157 C579.0087,684.8397 577.2595,686.5889 574.6356,686.5889 C574.6356,689.2128 572.0117,690.9621 570.2624,690.9621 C567.6385,690.9621 565.8892,689.2128 565.8892,686.5889 C565.8892,689.2128 563.2653,690.9621 561.516,690.9621 C558.8921,690.9621 557.1429,689.2128 557.1429,686.5889 C557.1429,689.2128 554.519,690.9621 552.7697,690.9621 C550.1458,690.9621 548.3965,689.2128 548.3965,686.5889 C548.3965,689.2128 545.7726,690.9621 544.0233,690.9621 C541.3994,690.9621 539.6501,689.2128 539.6501,686.5889 C539.6501,689.2128 537.0262,690.9621 535.277,690.9621 C532.6531,690.9621 530.9038,689.2128 530.9038,686.5889 C530.9038,689.2128 528.2799,690.9621 526.5306,690.9621 C523.9067,690.9621 522.1574,689.2128 522.1574,686.5889 C522.1574,689.2128 519.5335,690.9621 517.7843,690.9621 C515.1603,690.9621 513.4111,689.2128 513.4111,686.5889 C513.4111,689.2128 510.7872,690.9621 509.0379,690.9621 C506.414,690.9621 504.6647,689.2128 504.6647,686.5889 C504.6647,689.2128 502.0408,690.9621 500.2915,690.9621 C497.6676,690.9621 495.9184,689.2128 495.9184,686.5889 C495.9184,689.2128 493.2945,690.9621 491.5452,690.9621 C488.9213,690.9621 487.172,689.2128 487.172,686.5889 C487.172,689.2128 484.5481,690.9621 482.7988,690.9621 C480.1749,690.9621 478.4257,689.2128 478.4257,686.5889 C478.4257,689.2128 475.8017,690.9621 474.0525,690.9621 C471.4286,690.9621 469.6793,689.2128 469.6793,686.5889 C467.0554,686.5889 465.3061,684.8397 465.3061,682.2157 C465.3061,679.5918 467.0554,677.8426 469.6793,677.8426 C467.0554,677.8426 465.3061,676.0933 465.3061,673.4694 C465.3061,670.8455 467.0554,669.0962 469.6793,669.0962 C467.0554,669.0962 465.3061,667.3469 465.3061,664.723 C465.3061,662.0991 467.0554,660.3499 469.6793,660.3499 C467.0554,660.3499 465.3061,658.6006 465.3061,655.9767 C465.3061,653.3528 467.0554,651.6035 469.6793,651.6035 C467.0554,651.6035 465.3061,649.8542 465.3061,647.2303 C465.3061,644.6064 467.0554,642.8571 469.6793,642.8571 C467.0554,642.8571 465.3061,641.1079 465.3061,638.484 C465.3061,635.8601 467.0554,634.1108 469.6793,634.1108 C467.0554,634.1108 465.3061,632.3615 465.3061,629.7376 C465.3061,627.1137 467.0554,625.3644 469.6793,625.3644 C467.0554,625.3644 465.3061,623.6152 465.3061,620.9913 C465.3061,618.3673 467.0554,616.6181 469.6793,616.6181 C467.0554,616.6181 465.3061,614.8688 465.3061,612.2449 C465.3061,609.621 467.0554,607.8717 469.6793,607.8717 C467.0554,607.8717 465.3061,606.1224 465.3061,603.4985 C465.3061,600.8746 467.0554,599.1254 469.6793,599.1254 C467.0554,599.1254 465.3061,597.3761 465.3061,594.7522 C465.3061,592.1283 467.0554,590.379 469.6793,590.379 C467.0554,590.379 465.3061,588.6297 465.3061,586.0058 C465.3061,583.3819 467.0554,581.6327 469.6793,581.6327 C467.0554,581.6327 465.3061,579.8834 465.3061,577.2595 C465.3061,574.6356 467.0554,572.8863 469.6793,572.8863 C467.0554,572.8863 465.3061,571.137 465.3061,568.5131 C465.3061,565.8892 467.0554,564.1399 469.6793,564.1399 C467.0554,564.1399 465.3061,562.3907 465.3061,559.7668 C465.3061,557.1429 467.0554,555.3936 469.6793,555.3936 C467.0554,555.3936 465.3061,553.6443 465.3061,551.0204 C465.3061,548.3965 467.0554,546.6472 469.6793,546.6472 C467.0554,546.6472 465.3061,544.898 465.3061,542.2741 C465.3061,539.6501 467.0554,537.9009 469.6793,537.9009 C467.0554,537.9009 465.3061,536.1516 465.3061,533.5277 C465.3061,530.9038 467.0554,529.1545 469.6793,529.1545 C467.0554,529.1545 465.3061,527.4052 465.3061,524.7813 C465.3061,522.1574 467.0554,520.4082 469.6793,520.4082 " fill="#FFFFFF" filter="url(#fqmaycmg6ljdb)" style="stroke: #000000; stroke-width: 1.3119533527696792;"/><text fill="#000000" font-family="sans-serif" font-size="12.2449" font-weight="bold" lengthAdjust="spacingAndGlyphs" textLength="40.2332" x="502.0408" y="537.4943">Mesos</text><!--entity FrameworkState--><rect fill="#D3D3D3" filter="url(#fqmaycmg6ljdb)" height="112.7665" style="stroke: #A80036; stroke-width: 1.3119533527696792;" width="333.2362" x="69.5335" y="37.6093"/><rect fill="#D3D3D3" height="8.7464" style="stroke: #A80036; stroke-width: 1.3119533527696792;" width="13.1195" x="385.277" y="41.9825"/><rect fill="#D3D3D3" height="1.7493" style="stroke: #A80036; stroke-width: 1.3119533527696792;" width="3.4985" x="383.5277" y="43.7318"/><rect fill="#D3D3D3" height="1.7493" style="stroke: #A80036; stroke-width: 1.3119533527696792;" width="3.4985" x="383.5277" y="47.2303"/><text fill="#000000" font-family="sans-serif" font-size="12.2449" font-weight="bold" lengthAdjust="spacingAndGlyphs" textLength="101.4577" x="82.6531" y="66.9404">FrameworkState</text><text fill="#000000" font-family="sans-serif" font-size="12.2449" lengthAdjust="spacingAndGlyphs" textLength="0" x="86.1516" y="81.3616"/><text fill="#000000" font-family="sans-serif" font-size="12.2449" lengthAdjust="spacingAndGlyphs" textLength="279.0087" x="82.6531" y="95.7828">• Framework is responsible for knowing which</text><text fill="#000000" font-family="sans-serif" font-size="12.2449" lengthAdjust="spacingAndGlyphs" textLength="115.4519" x="82.6531" y="110.2041">services it launches</text><text fill="#000000" font-family="sans-serif" font-size="12.2449" lengthAdjust="spacingAndGlyphs" textLength="298.2507" x="82.6531" y="124.6253">• Framework submits commands to the scheduler</text><text fill="#000000" font-family="sans-serif" font-size="12.2449" lengthAdjust="spacingAndGlyphs" textLength="136.4431" x="82.6531" y="139.0466">to launch and kill pods</text><!--entity Orchestrator--><rect fill="#D3D3D3" filter="url(#fqmaycmg6ljdb)" height="98.3453" style="stroke: #A80036; stroke-width: 1.3119533527696792;" width="269.3878" x="127.6968" y="504.6647"/><rect fill="#D3D3D3" height="8.7464" style="stroke: #A80036; stroke-width: 1.3119533527696792;" width="13.1195" x="379.5918" y="509.0379"/><rect fill="#D3D3D3" height="1.7493" style="stroke: #A80036; stroke-width: 1.3119533527696792;" width="3.4985" x="377.8426" y="510.7872"/><rect fill="#D3D3D3" height="1.7493" style="stroke: #A80036; stroke-width: 1.3119533527696792;" width="3.4985" x="377.8426" y="514.2857"/><text fill="#000000" font-family="sans-serif" font-size="12.2449" font-weight="bold" lengthAdjust="spacingAndGlyphs" textLength="79.5918" x="140.8163" y="533.9958">Orchestrator</text><text fill="#000000" font-family="sans-serif" font-size="12.2449" lengthAdjust="spacingAndGlyphs" textLength="234.4023" x="140.8163" y="548.417">• Framework provided layer to manage</text><text fill="#000000" font-family="sans-serif" font-size="12.2449" lengthAdjust="spacingAndGlyphs" textLength="128.5714" x="140.8163" y="562.8382">deployment concerns</text><text fill="#000000" font-family="sans-serif" font-size="12.2449" lengthAdjust="spacingAndGlyphs" textLength="214.2857" x="140.8163" y="577.2595">• Respond to task statuses and take</text><text fill="#000000" font-family="sans-serif" font-size="12.2449" lengthAdjust="spacingAndGlyphs" textLength="234.4023" x="140.8163" y="591.6807">appropriate actions, such as restarting.</text><!--entity Scheduler--><rect fill="#FEFECE" filter="url(#fqmaycmg6ljdb)" height="112.7665" style="stroke: #A80036; stroke-width: 1.3119533527696792;" width="418.9504" x="26.6764" y="202.9155"/><rect fill="#FEFECE" height="8.7464" style="stroke: #A80036; stroke-width: 1.3119533527696792;" width="13.1195" x="428.1341" y="207.2886"/><rect fill="#FEFECE" height="1.7493" style="stroke: #A80036; stroke-width: 1.3119533527696792;" width="3.4985" x="426.3848" y="209.0379"/><rect fill="#FEFECE" height="1.7493" style="stroke: #A80036; stroke-width: 1.3119533527696792;" width="3.4985" x="426.3848" y="212.5364"/><text fill="#000000" font-family="sans-serif" font-size="12.2449" font-weight="bold" lengthAdjust="spacingAndGlyphs" textLength="60.3499" x="39.7959" y="232.2465">Scheduler</text><text fill="#000000" font-family="sans-serif" font-size="12.2449" lengthAdjust="spacingAndGlyphs" textLength="383.965" x="39.7959" y="246.6677">• Receives scheduler commands, such as LaunchPod and KillPod</text><text fill="#000000" font-family="sans-serif" font-size="12.2449" lengthAdjust="spacingAndGlyphs" textLength="150.4373" x="39.7959" y="261.089">• Handles offer matching</text><text fill="#000000" font-family="sans-serif" font-size="12.2449" lengthAdjust="spacingAndGlyphs" textLength="171.4286" x="39.7959" y="275.5102">• Handles task reconciliation</text><text fill="#000000" font-family="sans-serif" font-size="12.2449" lengthAdjust="spacingAndGlyphs" textLength="315.7434" x="39.7959" y="289.9314">• Persists records of reservations and launched pods</text><text fill="#000000" font-family="sans-serif" font-size="12.2449" lengthAdjust="spacingAndGlyphs" textLength="242.2741" x="39.7959" y="304.3527">• Emits PodStatus and ReservationStatus</text><!--entity SchedulerStorage--><rect fill="#FEFECE" filter="url(#fqmaycmg6ljdb)" height="83.924" style="stroke: #A80036; stroke-width: 1.3119533527696792;" width="269.3878" x="127.6968" y="368.2216"/><rect fill="#FEFECE" height="8.7464" style="stroke: #A80036; stroke-width: 1.3119533527696792;" width="13.1195" x="379.5918" y="372.5948"/><rect fill="#FEFECE" height="1.7493" style="stroke: #A80036; stroke-width: 1.3119533527696792;" width="3.4985" x="377.8426" y="374.344"/><rect fill="#FEFECE" height="1.7493" style="stroke: #A80036; stroke-width: 1.3119533527696792;" width="3.4985" x="377.8426" y="377.8426"/><text fill="#000000" font-family="sans-serif" font-size="12.2449" font-weight="bold" lengthAdjust="spacingAndGlyphs" textLength="107.5802" x="140.8163" y="397.5526">SchedulerStorage</text><text fill="#000000" font-family="sans-serif" font-size="12.2449" lengthAdjust="spacingAndGlyphs" textLength="215.1603" x="140.8163" y="411.9739">• Stores data that cannot be reliably</text><text fill="#000000" font-family="sans-serif" font-size="12.2449" lengthAdjust="spacingAndGlyphs" textLength="234.4023" x="140.8163" y="426.3951">recovered from Mesos (PodRecord, etc)</text><text fill="#000000" font-family="sans-serif" font-size="12.2449" lengthAdjust="spacingAndGlyphs" textLength="65.5977" x="140.8163" y="440.8163">• Pipelined</text><!--entity MesosMaster--><rect fill="#FFFFFF" filter="url(#fqmaycmg6ljdb)" height="31.9139" style="stroke: #A80036; stroke-width: 1.3119533527696792;" width="95.3353" x="474.4898" y="537.9009"/><rect fill="#FFFFFF" height="4.3732" style="stroke: #A80036; stroke-width: 1.3119533527696792;" width="8.7464" x="470.1166" y="542.2741"/><rect fill="#FFFFFF" height="4.3732" style="stroke: #A80036; stroke-width: 1.3119533527696792;" width="8.7464" x="470.1166" y="561.0685"/><text fill="#000000" font-family="sans-serif" font-size="12.2449" lengthAdjust="spacingAndGlyphs" textLength="77.8426" x="483.2362" y="558.4856">MesosMaster</text><!--entity Agent--><rect fill="#FFFFFF" filter="url(#fqmaycmg6ljdb)" height="31.9139" style="stroke: #A80036; stroke-width: 1.3119533527696792;" width="53.3528" x="495.481" y="655.102"/><rect fill="#FFFFFF" height="4.3732" style="stroke: #A80036; stroke-width: 1.3119533527696792;" width="8.7464" x="491.1079" y="659.4752"/><rect fill="#FFFFFF" height="4.3732" style="stroke: #A80036; stroke-width: 1.3119533527696792;" width="8.7464" x="491.1079" y="678.2696"/><text fill="#000000" font-family="sans-serif" font-size="12.2449" lengthAdjust="spacingAndGlyphs" textLength="35.8601" x="504.2274" y="675.6867">Agent</text><!--link Scheduler to SchedulerStorage--><path d="M245.9967,315.9388 C248.7247,331.6246 251.6544,348.4706 254.2719,363.521 " fill="none" id="Scheduler-SchedulerStorage" style="stroke: #A80036; stroke-width: 0.8746355685131195;"/><polygon fill="#A80036" points="255.0736,368.1309,257.1716,359.7761,254.3243,363.8224,250.278,360.975,255.0736,368.1309" style="stroke: #A80036; stroke-width: 0.8746355685131195;"/><!--link MesosMaster to Agent--><path d="M514.2464,569.4506 C510.2032,590.4212 509.9435,627.4683 513.4673,650.5039 " fill="none" id="MesosMaster-Agent" style="stroke: #A80036; stroke-width: 0.8746355685131195;"/><polygon fill="#A80036" points="514.2226,654.9153,516.3424,646.5661,513.4845,650.6049,509.4457,647.747,514.2226,654.9153" style="stroke: #A80036; stroke-width: 0.8746355685131195;"/><!--link MesosMaster to Agent--><path d="M531.3366,573.8501 C535.0836,596.8306 534.8243,633.8816 530.5591,654.9153 " fill="none" id="MesosMaster-Agent" style="stroke: #A80036; stroke-width: 0.8746355685131195;"/><polygon fill="#A80036" points="530.5339,569.4506,528.5053,577.8224,531.319,573.7527,535.3887,576.5664,530.5339,569.4506" style="stroke: #A80036; stroke-width: 0.8746355685131195;"/><!--link MesosMaster to Scheduler--><path d="M515.9489,537.7992 C501.8914,503.4962 464.7652,421.1864 412.828,368.2216 C394.5848,349.6175 372.55,332.8347 350.3215,318.3289 " fill="none" id="MesosMaster-Scheduler" style="stroke: #A80036; stroke-width: 0.8746355685131195;"/><polygon fill="#A80036" points="346.4625,315.8343,351.174,323.0458,350.1351,318.2084,354.9725,317.1696,346.4625,315.8343" style="stroke: #A80036; stroke-width: 0.8746355685131195;"/><!--link SchedulerStorage to MesosMaster--><path d="M368.8757,452.202 C401.4561,466.9143 436.6851,484.7877 467.0554,504.6647 C480.1411,513.2292 493.2881,524.7761 503.4569,534.5075 " fill="none" id="SchedulerStorage-MesosMaster" style="stroke: #A80036; stroke-width: 0.8746355685131195;"/><polygon fill="#A80036" points="506.7869,537.7311,503.5647,529.7423,503.6449,534.6893,498.6978,534.7695,506.7869,537.7311" style="stroke: #A80036; stroke-width: 0.8746355685131195;"/><!--link SchedulerStorage to Orchestrator--><path d="M262.3907,452.4651 C262.3907,467.4215 262.3907,484.4466 262.3907,500.2092 " fill="none" id="SchedulerStorage-Orchestrator" style="stroke: #A80036; stroke-width: 0.8746355685131195;"/><polygon fill="#A80036" points="262.3907,504.6189,265.8892,496.7472,262.3907,500.2457,258.8921,496.7472,262.3907,504.6189" style="stroke: #A80036; stroke-width: 0.8746355685131195;"/><!--link FrameworkState to Scheduler--><path d="M236.1516,150.45 C236.1516,165.9242 236.1516,182.7667 236.1516,198.4775 " fill="none" id="FrameworkState-Scheduler" style="stroke: #A80036; stroke-width: 0.8746355685131195;"/><polygon fill="#A80036" points="236.1516,202.8766,239.6501,195.0049,236.1516,198.5034,232.6531,195.0049,236.1516,202.8766" style="stroke: #A80036; stroke-width: 0.8746355685131195;"/><rect fill="#DDDDDD" height="69.9298" rx="4.3732" ry="4.3732" style="stroke: #000000; stroke-width: 0.8746355685131195;" width="161.8076" x="218.6589" y="716.3265"/><text fill="#000000" font-family="sans-serif" font-size="12.2449" font-weight="bold" lengthAdjust="spacingAndGlyphs" textLength="44.6064" x="228.2799" y="734.2873">Legend</text><rect fill="#D3D3D3" height="14.4212" style="stroke: none; stroke-width: 0.8746355685131195;" width="151.312" x="223.9067" y="736.8702"/><text fill="#000000" font-family="sans-serif" font-size="12.2449" lengthAdjust="spacingAndGlyphs" textLength="124.1983" x="227.4052" y="748.7085">Framework provided</text><rect fill="#FFFFE0" height="14.4212" style="stroke: none; stroke-width: 0.8746355685131195;" width="151.312" x="223.9067" y="751.2915"/><text fill="#000000" font-family="sans-serif" font-size="12.2449" lengthAdjust="spacingAndGlyphs" textLength="144.3149" x="227.4052" y="763.1298">UnifiedScheduler library</text><rect fill="#FFFFFF" height="14.4212" style="stroke: none; stroke-width: 0.8746355685131195;" width="151.312" x="223.9067" y="765.7127"/><text fill="#000000" font-family="sans-serif" font-size="12.2449" lengthAdjust="spacingAndGlyphs" textLength="37.6093" x="227.4052" y="777.551">Mesos</text><line style="stroke: #000000; stroke-width: 0.8746355685131195;" x1="223.9067" x2="375.2187" y1="722.449" y2="722.449"/><line style="stroke: #000000; stroke-width: 0.8746355685131195;" x1="223.9067" x2="375.2187" y1="736.8702" y2="736.8702"/><line style="stroke: #000000; stroke-width: 0.8746355685131195;" x1="223.9067" x2="375.2187" y1="751.2915" y2="751.2915"/><line style="stroke: #000000; stroke-width: 0.8746355685131195;" x1="223.9067" x2="375.2187" y1="765.7127" y2="765.7127"/><line style="stroke: #000000; stroke-width: 0.8746355685131195;" x1="223.9067" x2="375.2187" y1="780.1339" y2="780.1339"/><line style="stroke: #000000; stroke-width: 0.8746355685131195;" x1="223.9067" x2="223.9067" y1="722.449" y2="780.1339"/><line style="stroke: #000000; stroke-width: 0.8746355685131195;" x1="375.2187" x2="375.2187" y1="722.449" y2="780.1339"/><!--
@startuml
scale 600 width

legend
|= Legend|
|<#LightGrey> Framework provided |
|<#LightYellow> UnifiedScheduler library |
|<#White> Mesos |
endlegend

cloud Framework {
  component FrameworkState #LightGrey [
    <b>FrameworkState</b>

    • Framework is responsible for knowing which
      services it launches
    • Framework submits commands to the scheduler
      to launch and kill pods
  ]

  package UnifiedScheduler {
    component Scheduler [
      <b>Scheduler</b>
      • Receives scheduler commands, such as LaunchPod and KillPod
      • Handles offer matching
      • Handles task reconciliation
      • Persists records of reservations and launched pods
      • Emits PodStatus and ReservationStatus
    ]

    component SchedulerStorage [
      <b>SchedulerStorage</b>
      • Stores data that cannot be reliably
        recovered from Mesos (PodRecord, etc)
      • Pipelined
    ]

    Scheduler - -> SchedulerStorage
  }

  component Orchestrator #LightGrey [
    <b>Orchestrator</b>
    • Framework provided layer to manage
      deployment concerns
    • Respond to task statuses and take
      appropriate actions, such as restarting.
  ]
}

cloud Mesos {
  component MesosMaster #White
  component Agent #White
  MesosMaster - -> Agent
  MesosMaster <- - Agent
}

MesosMaster - -> Scheduler
SchedulerStorage - -> MesosMaster
SchedulerStorage - -> Orchestrator
FrameworkState - -> Scheduler

 
@enduml

PlantUML version 1.2018.03(Thu Apr 05 18:59:15 CEST 2018)
(GPL source distribution)
Java Runtime: OpenJDK Runtime Environment
JVM: OpenJDK 64-Bit Server VM
Java Version: 11.0.3+7
Operating System: Mac OS X
OS Version: 10.14.4
Default Encoding: UTF-8
Language: en
Country: US
--></g></svg>