<?xml version="1.0" encoding="UTF-8" standalone="no"?><svg xmlns="http://www.w3.org/2000/svg" xmlns:xlink="http://www.w3.org/1999/xlink" contentScriptType="application/ecmascript" contentStyleType="text/css" height="973.0909px" preserveAspectRatio="none" style="width:586px;height:973px;" version="1.1" viewBox="0 0 586 973" width="586.9091px" zoomAndPan="magnify"><defs><filter height="300%" id="f1kxnzvx7nzzyd" width="300%" x="-1" y="-1"><feGaussianBlur result="blurOut" stdDeviation="2.1818181818181817"/><feColorMatrix in="blurOut" result="blurOut2" type="matrix" values="0 0 0 0 0 0 0 0 0 0 0 0 0 0 0 0 0 0 .4 0"/><feOffset dx="4.363636363636363" dy="4.363636363636363" in="blurOut2" result="blurOut3"/><feBlend in="SourceGraphic" in2="blurOut3" mode="normal"/></filter></defs><g><!--cluster Framework--><path d="M18.5455,25.0909 C18.5455,21.8182 20.7273,19.6364 24,19.6364 C27.2727,19.6364 29.4545,21.8182 29.4545,25.0909 C29.4545,21.8182 31.6364,19.6364 34.9091,19.6364 C38.1818,19.6364 40.3636,21.8182 40.3636,25.0909 C40.3636,21.8182 42.5455,19.6364 45.8182,19.6364 C49.0909,19.6364 51.2727,21.8182 51.2727,25.0909 C51.2727,21.8182 53.4545,19.6364 56.7273,19.6364 C60,19.6364 62.1818,21.8182 62.1818,25.0909 C62.1818,21.8182 64.3636,19.6364 67.6364,19.6364 C70.9091,19.6364 73.0909,21.8182 73.0909,25.0909 C73.0909,21.8182 75.2727,19.6364 78.5455,19.6364 C81.8182,19.6364 84,21.8182 84,25.0909 C84,21.8182 86.1818,19.6364 89.4545,19.6364 C92.7273,19.6364 94.9091,21.8182 94.9091,25.0909 C94.9091,21.8182 97.0909,19.6364 100.3636,19.6364 C103.6364,19.6364 105.8182,21.8182 105.8182,25.0909 C105.8182,21.8182 108,19.6364 111.2727,19.6364 C114.5455,19.6364 116.7273,21.8182 116.7273,25.0909 C116.7273,21.8182 118.9091,19.6364 122.1818,19.6364 C125.4545,19.6364 127.6364,21.8182 127.6364,25.0909 C127.6364,21.8182 129.8182,19.6364 133.0909,19.6364 C136.3636,19.6364 138.5455,21.8182 138.5455,25.0909 C138.5455,21.8182 140.7273,19.6364 144,19.6364 C147.2727,19.6364 149.4545,21.8182 149.4545,25.0909 C149.4545,21.8182 151.6364,19.6364 154.9091,19.6364 C158.1818,19.6364 160.3636,21.8182 160.3636,25.0909 C160.3636,21.8182 162.5455,19.6364 165.8182,19.6364 C169.0909,19.6364 171.2727,21.8182 171.2727,25.0909 C171.2727,21.8182 173.4545,19.6364 176.7273,19.6364 C180,19.6364 182.1818,21.8182 182.1818,25.0909 C182.1818,21.8182 184.3636,19.6364 187.6364,19.6364 C190.9091,19.6364 193.0909,21.8182 193.0909,25.0909 C193.0909,21.8182 195.2727,19.6364 198.5455,19.6364 C201.8182,19.6364 204,21.8182 204,25.0909 C204,21.8182 206.1818,19.6364 209.4545,19.6364 C212.7273,19.6364 214.9091,21.8182 214.9091,25.0909 C214.9091,21.8182 217.0909,19.6364 220.3636,19.6364 C223.6364,19.6364 225.8182,21.8182 225.8182,25.0909 C225.8182,21.8182 228,19.6364 231.2727,19.6364 C234.5455,19.6364 236.7273,21.8182 236.7273,25.0909 C236.7273,21.8182 238.9091,19.6364 242.1818,19.6364 C245.4545,19.6364 247.6364,21.8182 247.6364,25.0909 C247.6364,21.8182 249.8182,19.6364 253.0909,19.6364 C256.3636,19.6364 258.5455,21.8182 258.5455,25.0909 C258.5455,21.8182 260.7273,19.6364 264,19.6364 C267.2727,19.6364 269.4545,21.8182 269.4545,25.0909 C269.4545,21.8182 271.6364,19.6364 274.9091,19.6364 C278.1818,19.6364 280.3636,21.8182 280.3636,25.0909 C280.3636,21.8182 282.5455,19.6364 285.8182,19.6364 C289.0909,19.6364 291.2727,21.8182 291.2727,25.0909 C291.2727,21.8182 293.4545,19.6364 296.7273,19.6364 C300,19.6364 302.1818,21.8182 302.1818,25.0909 C302.1818,21.8182 304.3636,19.6364 307.6364,19.6364 C310.9091,19.6364 313.0909,21.8182 313.0909,25.0909 C313.0909,21.8182 315.2727,19.6364 318.5455,19.6364 C321.8182,19.6364 324,21.8182 324,25.0909 C324,21.8182 326.1818,19.6364 329.4545,19.6364 C332.7273,19.6364 334.9091,21.8182 334.9091,25.0909 C334.9091,21.8182 337.0909,19.6364 340.3636,19.6364 C343.6364,19.6364 345.8182,21.8182 345.8182,25.0909 C345.8182,21.8182 348,19.6364 351.2727,19.6364 C354.5455,19.6364 356.7273,21.8182 356.7273,25.0909 C356.7273,21.8182 358.9091,19.6364 362.1818,19.6364 C365.4545,19.6364 367.6364,21.8182 367.6364,25.0909 C367.6364,21.8182 369.8182,19.6364 373.0909,19.6364 C376.3636,19.6364 378.5455,21.8182 378.5455,25.0909 C378.5455,21.8182 380.7273,19.6364 384,19.6364 C387.2727,19.6364 389.4545,21.8182 389.4545,25.0909 C389.4545,21.8182 391.6364,19.6364 394.9091,19.6364 C398.1818,19.6364 400.3636,21.8182 400.3636,25.0909 C400.3636,21.8182 402.5455,19.6364 405.8182,19.6364 C409.0909,19.6364 411.2727,21.8182 411.2727,25.0909 C411.2727,21.8182 413.4545,19.6364 416.7273,19.6364 C420,19.6364 422.1818,21.8182 422.1818,25.0909 C425.4545,25.0909 427.6364,27.2727 427.6364,30.5455 C427.6364,33.8182 425.4545,36 422.1818,36 C425.4545,36 427.6364,38.1818 427.6364,41.4545 C427.6364,44.7273 425.4545,46.9091 422.1818,46.9091 C425.4545,46.9091 427.6364,49.0909 427.6364,52.3636 C427.6364,55.6364 425.4545,57.8182 422.1818,57.8182 C425.4545,57.8182 427.6364,60 427.6364,63.2727 C427.6364,66.5455 425.4545,68.7273 422.1818,68.7273 C425.4545,68.7273 427.6364,70.9091 427.6364,74.1818 C427.6364,77.4545 425.4545,79.6364 422.1818,79.6364 C425.4545,79.6364 427.6364,81.8182 427.6364,85.0909 C427.6364,88.3636 425.4545,90.5455 422.1818,90.5455 C425.4545,90.5455 427.6364,92.7273 427.6364,96 C427.6364,99.2727 425.4545,101.4545 422.1818,101.4545 C425.4545,101.4545 427.6364,103.6364 427.6364,106.9091 C427.6364,110.1818 425.4545,112.3636 422.1818,112.3636 C425.4545,112.3636 427.6364,114.5455 427.6364,117.8182 C427.6364,121.0909 425.4545,123.2727 422.1818,123.2727 C425.4545,123.2727 427.6364,125.4545 427.6364,128.7273 C427.6364,132 425.4545,134.1818 422.1818,134.1818 C425.4545,134.1818 427.6364,136.3636 427.6364,139.6364 C427.6364,142.9091 425.4545,145.0909 422.1818,145.0909 C425.4545,145.0909 427.6364,147.2727 427.6364,150.5455 C427.6364,153.8182 425.4545,156 422.1818,156 C425.4545,156 427.6364,158.1818 427.6364,161.4545 C427.6364,164.7273 425.4545,166.9091 422.1818,166.9091 C425.4545,166.9091 427.6364,169.0909 427.6364,172.3636 C427.6364,175.6364 425.4545,177.8182 422.1818,177.8182 C425.4545,177.8182 427.6364,180 427.6364,183.2727 C427.6364,186.5455 425.4545,188.7273 422.1818,188.7273 C425.4545,188.7273 427.6364,190.9091 427.6364,194.1818 C427.6364,197.4545 425.4545,199.6364 422.1818,199.6364 C425.4545,199.6364 427.6364,201.8182 427.6364,205.0909 C427.6364,208.3636 425.4545,210.5455 422.1818,210.5455 C425.4545,210.5455 427.6364,212.7273 427.6364,216 C427.6364,219.2727 425.4545,221.4545 422.1818,221.4545 C425.4545,221.4545 427.6364,223.6364 427.6364,226.9091 C427.6364,230.1818 425.4545,232.3636 422.1818,232.3636 C425.4545,232.3636 427.6364,234.5455 427.6364,237.8182 C427.6364,241.0909 425.4545,243.2727 422.1818,243.2727 C425.4545,243.2727 427.6364,245.4545 427.6364,248.7273 C427.6364,252 425.4545,254.1818 422.1818,254.1818 C425.4545,254.1818 427.6364,256.3636 427.6364,259.6364 C427.6364,262.9091 425.4545,265.0909 422.1818,265.0909 C425.4545,265.0909 427.6364,267.2727 427.6364,270.5455 C427.6364,273.8182 425.4545,276 422.1818,276 C425.4545,276 427.6364,278.1818 427.6364,281.4545 C427.6364,284.7273 425.4545,286.9091 422.1818,286.9091 C425.4545,286.9091 427.6364,289.0909 427.6364,292.3636 C427.6364,295.6364 425.4545,297.8182 422.1818,297.8182 C425.4545,297.8182 427.6364,300 427.6364,303.2727 C427.6364,306.5455 425.4545,308.7273 422.1818,308.7273 C425.4545,308.7273 427.6364,310.9091 427.6364,314.1818 C427.6364,317.4545 425.4545,319.6364 422.1818,319.6364 C425.4545,319.6364 427.6364,321.8182 427.6364,325.0909 C427.6364,328.3636 425.4545,330.5455 422.1818,330.5455 C425.4545,330.5455 427.6364,332.7273 427.6364,336 C427.6364,339.2727 425.4545,341.4545 422.1818,341.4545 C425.4545,341.4545 427.6364,343.6364 427.6364,346.9091 C427.6364,350.1818 425.4545,352.3636 422.1818,352.3636 C425.4545,352.3636 427.6364,354.5455 427.6364,357.8182 C427.6364,361.0909 425.4545,363.2727 422.1818,363.2727 C425.4545,363.2727 427.6364,365.4545 427.6364,368.7273 C427.6364,372 425.4545,374.1818 422.1818,374.1818 C425.4545,374.1818 427.6364,376.3636 427.6364,379.6364 C427.6364,382.9091 425.4545,385.0909 422.1818,385.0909 C425.4545,385.0909 427.6364,387.2727 427.6364,390.5455 C427.6364,393.8182 425.4545,396 422.1818,396 C425.4545,396 427.6364,398.1818 427.6364,401.4545 C427.6364,404.7273 425.4545,406.9091 422.1818,406.9091 C425.4545,406.9091 427.6364,409.0909 427.6364,412.3636 C427.6364,415.6364 425.4545,417.8182 422.1818,417.8182 C425.4545,417.8182 427.6364,420 427.6364,423.2727 C427.6364,426.5455 425.4545,428.7273 422.1818,428.7273 C425.4545,428.7273 427.6364,430.9091 427.6364,434.1818 C427.6364,437.4545 425.4545,439.6364 422.1818,439.6364 C425.4545,439.6364 427.6364,441.8182 427.6364,445.0909 C427.6364,448.3636 425.4545,450.5455 422.1818,450.5455 C425.4545,450.5455 427.6364,452.7273 427.6364,456 C427.6364,459.2727 425.4545,461.4545 422.1818,461.4545 C425.4545,461.4545 427.6364,463.6364 427.6364,466.9091 C427.6364,470.1818 425.4545,472.3636 422.1818,472.3636 C425.4545,472.3636 427.6364,474.5455 427.6364,477.8182 C427.6364,481.0909 425.4545,483.2727 422.1818,483.2727 C425.4545,483.2727 427.6364,485.4545 427.6364,488.7273 C427.6364,492 425.4545,494.1818 422.1818,494.1818 C425.4545,494.1818 427.6364,496.3636 427.6364,499.6364 C427.6364,502.9091 425.4545,505.0909 422.1818,505.0909 C425.4545,505.0909 427.6364,507.2727 427.6364,510.5455 C427.6364,513.8182 425.4545,516 422.1818,516 C425.4545,516 427.6364,518.1818 427.6364,521.4545 C427.6364,524.7273 425.4545,526.9091 422.1818,526.9091 C425.4545,526.9091 427.6364,529.0909 427.6364,532.3636 C427.6364,535.6364 425.4545,537.8182 422.1818,537.8182 C425.4545,537.8182 427.6364,540 427.6364,543.2727 C427.6364,546.5455 425.4545,548.7273 422.1818,548.7273 C425.4545,548.7273 427.6364,550.9091 427.6364,554.1818 C427.6364,557.4545 425.4545,559.6364 422.1818,559.6364 C425.4545,559.6364 427.6364,561.8182 427.6364,565.0909 C427.6364,568.3636 425.4545,570.5455 422.1818,570.5455 C425.4545,570.5455 427.6364,572.7273 427.6364,576 C427.6364,579.2727 425.4545,581.4545 422.1818,581.4545 C425.4545,581.4545 427.6364,583.6364 427.6364,586.9091 C427.6364,590.1818 425.4545,592.3636 422.1818,592.3636 C425.4545,592.3636 427.6364,594.5455 427.6364,597.8182 C427.6364,601.0909 425.4545,603.2727 422.1818,603.2727 C425.4545,603.2727 427.6364,605.4545 427.6364,608.7273 C427.6364,612 425.4545,614.1818 422.1818,614.1818 C425.4545,614.1818 427.6364,616.3636 427.6364,619.6364 C427.6364,622.9091 425.4545,625.0909 422.1818,625.0909 C425.4545,625.0909 427.6364,627.2727 427.6364,630.5455 C427.6364,633.8182 425.4545,636 422.1818,636 C425.4545,636 427.6364,638.1818 427.6364,641.4545 C427.6364,644.7273 425.4545,646.9091 422.1818,646.9091 C425.4545,646.9091 427.6364,649.0909 427.6364,652.3636 C427.6364,655.6364 425.4545,657.8182 422.1818,657.8182 C425.4545,657.8182 427.6364,660 427.6364,663.2727 C427.6364,666.5455 425.4545,668.7273 422.1818,668.7273 C425.4545,668.7273 427.6364,670.9091 427.6364,674.1818 C427.6364,677.4545 425.4545,679.6364 422.1818,679.6364 C425.4545,679.6364 427.6364,681.8182 427.6364,685.0909 C427.6364,688.3636 425.4545,690.5455 422.1818,690.5455 C425.4545,690.5455 427.6364,692.7273 427.6364,696 C427.6364,699.2727 425.4545,701.4545 422.1818,701.4545 C425.4545,701.4545 427.6364,703.6364 427.6364,706.9091 C427.6364,710.1818 425.4545,712.3636 422.1818,712.3636 C425.4545,712.3636 427.6364,714.5455 427.6364,717.8182 C427.6364,721.0909 425.4545,723.2727 422.1818,723.2727 C425.4545,723.2727 427.6364,725.4545 427.6364,728.7273 C427.6364,732 425.4545,734.1818 422.1818,734.1818 C422.1818,737.4545 418.9091,739.6364 416.7273,739.6364 C413.4545,739.6364 411.2727,737.4545 411.2727,734.1818 C411.2727,737.4545 408,739.6364 405.8182,739.6364 C402.5455,739.6364 400.3636,737.4545 400.3636,734.1818 C400.3636,737.4545 397.0909,739.6364 394.9091,739.6364 C391.6364,739.6364 389.4545,737.4545 389.4545,734.1818 C389.4545,737.4545 386.1818,739.6364 384,739.6364 C380.7273,739.6364 378.5455,737.4545 378.5455,734.1818 C378.5455,737.4545 375.2727,739.6364 373.0909,739.6364 C369.8182,739.6364 367.6364,737.4545 367.6364,734.1818 C367.6364,737.4545 364.3636,739.6364 362.1818,739.6364 C358.9091,739.6364 356.7273,737.4545 356.7273,734.1818 C356.7273,737.4545 353.4545,739.6364 351.2727,739.6364 C348,739.6364 345.8182,737.4545 345.8182,734.1818 C345.8182,737.4545 342.5455,739.6364 340.3636,739.6364 C337.0909,739.6364 334.9091,737.4545 334.9091,734.1818 C334.9091,737.4545 331.6364,739.6364 329.4545,739.6364 C326.1818,739.6364 324,737.4545 324,734.1818 C324,737.4545 320.7273,739.6364 318.5455,739.6364 C315.2727,739.6364 313.0909,737.4545 313.0909,734.1818 C313.0909,737.4545 309.8182,739.6364 307.6364,739.6364 C304.3636,739.6364 302.1818,737.4545 302.1818,734.1818 C302.1818,737.4545 298.9091,739.6364 296.7273,739.6364 C293.4545,739.6364 291.2727,737.4545 291.2727,734.1818 C291.2727,737.4545 288,739.6364 285.8182,739.6364 C282.5455,739.6364 280.3636,737.4545 280.3636,734.1818 C280.3636,737.4545 277.0909,739.6364 274.9091,739.6364 C271.6364,739.6364 269.4545,737.4545 269.4545,734.1818 C269.4545,737.4545 266.1818,739.6364 264,739.6364 C260.7273,739.6364 258.5455,737.4545 258.5455,734.1818 C258.5455,737.4545 255.2727,739.6364 253.0909,739.6364 C249.8182,739.6364 247.6364,737.4545 247.6364,734.1818 C247.6364,737.4545 244.3636,739.6364 242.1818,739.6364 C238.9091,739.6364 236.7273,737.4545 236.7273,734.1818 C236.7273,737.4545 233.4545,739.6364 231.2727,739.6364 C228,739.6364 225.8182,737.4545 225.8182,734.1818 C225.8182,737.4545 222.5455,739.6364 220.3636,739.6364 C217.0909,739.6364 214.9091,737.4545 214.9091,734.1818 C214.9091,737.4545 211.6364,739.6364 209.4545,739.6364 C206.1818,739.6364 204,737.4545 204,734.1818 C204,737.4545 200.7273,739.6364 198.5455,739.6364 C195.2727,739.6364 193.0909,737.4545 193.0909,734.1818 C193.0909,737.4545 189.8182,739.6364 187.6364,739.6364 C184.3636,739.6364 182.1818,737.4545 182.1818,734.1818 C182.1818,737.4545 178.9091,739.6364 176.7273,739.6364 C173.4545,739.6364 171.2727,737.4545 171.2727,734.1818 C171.2727,737.4545 168,739.6364 165.8182,739.6364 C162.5455,739.6364 160.3636,737.4545 160.3636,734.1818 C160.3636,737.4545 157.0909,739.6364 154.9091,739.6364 C151.6364,739.6364 149.4545,737.4545 149.4545,734.1818 C149.4545,737.4545 146.1818,739.6364 144,739.6364 C140.7273,739.6364 138.5455,737.4545 138.5455,734.1818 C138.5455,737.4545 135.2727,739.6364 133.0909,739.6364 C129.8182,739.6364 127.6364,737.4545 127.6364,734.1818 C127.6364,737.4545 124.3636,739.6364 122.1818,739.6364 C118.9091,739.6364 116.7273,737.4545 116.7273,734.1818 C116.7273,737.4545 113.4545,739.6364 111.2727,739.6364 C108,739.6364 105.8182,737.4545 105.8182,734.1818 C105.8182,737.4545 102.5455,739.6364 100.3636,739.6364 C97.0909,739.6364 94.9091,737.4545 94.9091,734.1818 C94.9091,737.4545 91.6364,739.6364 89.4545,739.6364 C86.1818,739.6364 84,737.4545 84,734.1818 C84,737.4545 80.7273,739.6364 78.5455,739.6364 C75.2727,739.6364 73.0909,737.4545 73.0909,734.1818 C73.0909,737.4545 69.8182,739.6364 67.6364,739.6364 C64.3636,739.6364 62.1818,737.4545 62.1818,734.1818 C62.1818,737.4545 58.9091,739.6364 56.7273,739.6364 C53.4545,739.6364 51.2727,737.4545 51.2727,734.1818 C51.2727,737.4545 48,739.6364 45.8182,739.6364 C42.5455,739.6364 40.3636,737.4545 40.3636,734.1818 C40.3636,737.4545 37.0909,739.6364 34.9091,739.6364 C31.6364,739.6364 29.4545,737.4545 29.4545,734.1818 C29.4545,737.4545 26.1818,739.6364 24,739.6364 C20.7273,739.6364 18.5455,737.4545 18.5455,734.1818 C15.2727,734.1818 13.0909,732 13.0909,728.7273 C13.0909,725.4545 15.2727,723.2727 18.5455,723.2727 C15.2727,723.2727 13.0909,721.0909 13.0909,717.8182 C13.0909,714.5455 15.2727,712.3636 18.5455,712.3636 C15.2727,712.3636 13.0909,710.1818 13.0909,706.9091 C13.0909,703.6364 15.2727,701.4545 18.5455,701.4545 C15.2727,701.4545 13.0909,699.2727 13.0909,696 C13.0909,692.7273 15.2727,690.5455 18.5455,690.5455 C15.2727,690.5455 13.0909,688.3636 13.0909,685.0909 C13.0909,681.8182 15.2727,679.6364 18.5455,679.6364 C15.2727,679.6364 13.0909,677.4545 13.0909,674.1818 C13.0909,670.9091 15.2727,668.7273 18.5455,668.7273 C15.2727,668.7273 13.0909,666.5455 13.0909,663.2727 C13.0909,660 15.2727,657.8182 18.5455,657.8182 C15.2727,657.8182 13.0909,655.6364 13.0909,652.3636 C13.0909,649.0909 15.2727,646.9091 18.5455,646.9091 C15.2727,646.9091 13.0909,644.7273 13.0909,641.4545 C13.0909,638.1818 15.2727,636 18.5455,636 C15.2727,636 13.0909,633.8182 13.0909,630.5455 C13.0909,627.2727 15.2727,625.0909 18.5455,625.0909 C15.2727,625.0909 13.0909,622.9091 13.0909,619.6364 C13.0909,616.3636 15.2727,614.1818 18.5455,614.1818 C15.2727,614.1818 13.0909,612 13.0909,608.7273 C13.0909,605.4545 15.2727,603.2727 18.5455,603.2727 C15.2727,603.2727 13.0909,601.0909 13.0909,597.8182 C13.0909,594.5455 15.2727,592.3636 18.5455,592.3636 C15.2727,592.3636 13.0909,590.1818 13.0909,586.9091 C13.0909,583.6364 15.2727,581.4545 18.5455,581.4545 C15.2727,581.4545 13.0909,579.2727 13.0909,576 C13.0909,572.7273 15.2727,570.5455 18.5455,570.5455 C15.2727,570.5455 13.0909,568.3636 13.0909,565.0909 C13.0909,561.8182 15.2727,559.6364 18.5455,559.6364 C15.2727,559.6364 13.0909,557.4545 13.0909,554.1818 C13.0909,550.9091 15.2727,548.7273 18.5455,548.7273 C15.2727,548.7273 13.0909,546.5455 13.0909,543.2727 C13.0909,540 15.2727,537.8182 18.5455,537.8182 C15.2727,537.8182 13.0909,535.6364 13.0909,532.3636 C13.0909,529.0909 15.2727,526.9091 18.5455,526.9091 C15.2727,526.9091 13.0909,524.7273 13.0909,521.4545 C13.0909,518.1818 15.2727,516 18.5455,516 C15.2727,516 13.0909,513.8182 13.0909,510.5455 C13.0909,507.2727 15.2727,505.0909 18.5455,505.0909 C15.2727,505.0909 13.0909,502.9091 13.0909,499.6364 C13.0909,496.3636 15.2727,494.1818 18.5455,494.1818 C15.2727,494.1818 13.0909,492 13.0909,488.7273 C13.0909,485.4545 15.2727,483.2727 18.5455,483.2727 C15.2727,483.2727 13.0909,481.0909 13.0909,477.8182 C13.0909,474.5455 15.2727,472.3636 18.5455,472.3636 C15.2727,472.3636 13.0909,470.1818 13.0909,466.9091 C13.0909,463.6364 15.2727,461.4545 18.5455,461.4545 C15.2727,461.4545 13.0909,459.2727 13.0909,456 C13.0909,452.7273 15.2727,450.5455 18.5455,450.5455 C15.2727,450.5455 13.0909,448.3636 13.0909,445.0909 C13.0909,441.8182 15.2727,439.6364 18.5455,439.6364 C15.2727,439.6364 13.0909,437.4545 13.0909,434.1818 C13.0909,430.9091 15.2727,428.7273 18.5455,428.7273 C15.2727,428.7273 13.0909,426.5455 13.0909,423.2727 C13.0909,420 15.2727,417.8182 18.5455,417.8182 C15.2727,417.8182 13.0909,415.6364 13.0909,412.3636 C13.0909,409.0909 15.2727,406.9091 18.5455,406.9091 C15.2727,406.9091 13.0909,404.7273 13.0909,401.4545 C13.0909,398.1818 15.2727,396 18.5455,396 C15.2727,396 13.0909,393.8182 13.0909,390.5455 C13.0909,387.2727 15.2727,385.0909 18.5455,385.0909 C15.2727,385.0909 13.0909,382.9091 13.0909,379.6364 C13.0909,376.3636 15.2727,374.1818 18.5455,374.1818 C15.2727,374.1818 13.0909,372 13.0909,368.7273 C13.0909,365.4545 15.2727,363.2727 18.5455,363.2727 C15.2727,363.2727 13.0909,361.0909 13.0909,357.8182 C13.0909,354.5455 15.2727,352.3636 18.5455,352.3636 C15.2727,352.3636 13.0909,350.1818 13.0909,346.9091 C13.0909,343.6364 15.2727,341.4545 18.5455,341.4545 C15.2727,341.4545 13.0909,339.2727 13.0909,336 C13.0909,332.7273 15.2727,330.5455 18.5455,330.5455 C15.2727,330.5455 13.0909,328.3636 13.0909,325.0909 C13.0909,321.8182 15.2727,319.6364 18.5455,319.6364 C15.2727,319.6364 13.0909,317.4545 13.0909,314.1818 C13.0909,310.9091 15.2727,308.7273 18.5455,308.7273 C15.2727,308.7273 13.0909,306.5455 13.0909,303.2727 C13.0909,300 15.2727,297.8182 18.5455,297.8182 C15.2727,297.8182 13.0909,295.6364 13.0909,292.3636 C13.0909,289.0909 15.2727,286.9091 18.5455,286.9091 C15.2727,286.9091 13.0909,284.7273 13.0909,281.4545 C13.0909,278.1818 15.2727,276 18.5455,276 C15.2727,276 13.0909,273.8182 13.0909,270.5455 C13.0909,267.2727 15.2727,265.0909 18.5455,265.0909 C15.2727,265.0909 13.0909,262.9091 13.0909,259.6364 C13.0909,256.3636 15.2727,254.1818 18.5455,254.1818 C15.2727,254.1818 13.0909,252 13.0909,248.7273 C13.0909,245.4545 15.2727,243.2727 18.5455,243.2727 C15.2727,243.2727 13.0909,241.0909 13.0909,237.8182 C13.0909,234.5455 15.2727,232.3636 18.5455,232.3636 C15.2727,232.3636 13.0909,230.1818 13.0909,226.9091 C13.0909,223.6364 15.2727,221.4545 18.5455,221.4545 C15.2727,221.4545 13.0909,219.2727 13.0909,216 C13.0909,212.7273 15.2727,210.5455 18.5455,210.5455 C15.2727,210.5455 13.0909,208.3636 13.0909,205.0909 C13.0909,201.8182 15.2727,199.6364 18.5455,199.6364 C15.2727,199.6364 13.0909,197.4545 13.0909,194.1818 C13.0909,190.9091 15.2727,188.7273 18.5455,188.7273 C15.2727,188.7273 13.0909,186.5455 13.0909,183.2727 C13.0909,180 15.2727,177.8182 18.5455,177.8182 C15.2727,177.8182 13.0909,175.6364 13.0909,172.3636 C13.0909,169.0909 15.2727,166.9091 18.5455,166.9091 C15.2727,166.9091 13.0909,164.7273 13.0909,161.4545 C13.0909,158.1818 15.2727,156 18.5455,156 C15.2727,156 13.0909,153.8182 13.0909,150.5455 C13.0909,147.2727 15.2727,145.0909 18.5455,145.0909 C15.2727,145.0909 13.0909,142.9091 13.0909,139.6364 C13.0909,136.3636 15.2727,134.1818 18.5455,134.1818 C15.2727,134.1818 13.0909,132 13.0909,128.7273 C13.0909,125.4545 15.2727,123.2727 18.5455,123.2727 C15.2727,123.2727 13.0909,121.0909 13.0909,117.8182 C13.0909,114.5455 15.2727,112.3636 18.5455,112.3636 C15.2727,112.3636 13.0909,110.1818 13.0909,106.9091 C13.0909,103.6364 15.2727,101.4545 18.5455,101.4545 C15.2727,101.4545 13.0909,99.2727 13.0909,96 C13.0909,92.7273 15.2727,90.5455 18.5455,90.5455 C15.2727,90.5455 13.0909,88.3636 13.0909,85.0909 C13.0909,81.8182 15.2727,79.6364 18.5455,79.6364 C15.2727,79.6364 13.0909,77.4545 13.0909,74.1818 C13.0909,70.9091 15.2727,68.7273 18.5455,68.7273 C15.2727,68.7273 13.0909,66.5455 13.0909,63.2727 C13.0909,60 15.2727,57.8182 18.5455,57.8182 C15.2727,57.8182 13.0909,55.6364 13.0909,52.3636 C13.0909,49.0909 15.2727,46.9091 18.5455,46.9091 C15.2727,46.9091 13.0909,44.7273 13.0909,41.4545 C13.0909,38.1818 15.2727,36 18.5455,36 C15.2727,36 13.0909,33.8182 13.0909,30.5455 C13.0909,27.2727 15.2727,25.0909 18.5455,25.0909 " fill="#FFFFFF" filter="url(#f1kxnzvx7nzzyd)" style="stroke: #000000; stroke-width: 1.6363636363636362;"/><text fill="#000000" font-family="sans-serif" font-size="15.2727" font-weight="bold" lengthAdjust="spacingAndGlyphs" textLength="87.2727" x="176.7273" y="46.402">Framework</text><!--cluster UnifiedScheduler--><polygon fill="#FFFFFF" filter="url(#f1kxnzvx7nzzyd)" points="52.3636,223.6364,190.9091,223.6364,198.5455,248.169,416.7273,248.169,416.7273,554.1818,52.3636,554.1818,52.3636,223.6364" style="stroke: #000000; stroke-width: 1.6363636363636362;"/><line style="stroke: #000000; stroke-width: 1.6363636363636362;" x1="52.3636" x2="198.5455" y1="248.169" y2="248.169"/><text fill="#000000" font-family="sans-serif" font-size="15.2727" font-weight="bold" lengthAdjust="spacingAndGlyphs" textLength="132" x="56.7273" y="240.5838">UnifiedScheduler</text><!--cluster Mesos--><path d="M437.4545,630.5455 C437.4545,627.2727 439.6364,625.0909 442.9091,625.0909 C446.1818,625.0909 448.3636,627.2727 448.3636,630.5455 C448.3636,627.2727 450.5455,625.0909 453.8182,625.0909 C457.0909,625.0909 459.2727,627.2727 459.2727,630.5455 C459.2727,627.2727 461.4545,625.0909 464.7273,625.0909 C468,625.0909 470.1818,627.2727 470.1818,630.5455 C470.1818,627.2727 472.3636,625.0909 475.6364,625.0909 C478.9091,625.0909 481.0909,627.2727 481.0909,630.5455 C481.0909,627.2727 483.2727,625.0909 486.5455,625.0909 C489.8182,625.0909 492,627.2727 492,630.5455 C492,627.2727 494.1818,625.0909 497.4545,625.0909 C500.7273,625.0909 502.9091,627.2727 502.9091,630.5455 C502.9091,627.2727 505.0909,625.0909 508.3636,625.0909 C511.6364,625.0909 513.8182,627.2727 513.8182,630.5455 C513.8182,627.2727 516,625.0909 519.2727,625.0909 C522.5455,625.0909 524.7273,627.2727 524.7273,630.5455 C524.7273,627.2727 526.9091,625.0909 530.1818,625.0909 C533.4545,625.0909 535.6364,627.2727 535.6364,630.5455 C535.6364,627.2727 537.8182,625.0909 541.0909,625.0909 C544.3636,625.0909 546.5455,627.2727 546.5455,630.5455 C546.5455,627.2727 548.7273,625.0909 552,625.0909 C555.2727,625.0909 557.4545,627.2727 557.4545,630.5455 C557.4545,627.2727 559.6364,625.0909 562.9091,625.0909 C566.1818,625.0909 568.3636,627.2727 568.3636,630.5455 C571.6364,630.5455 573.8182,632.7273 573.8182,636 C573.8182,639.2727 571.6364,641.4545 568.3636,641.4545 C571.6364,641.4545 573.8182,643.6364 573.8182,646.9091 C573.8182,650.1818 571.6364,652.3636 568.3636,652.3636 C571.6364,652.3636 573.8182,654.5455 573.8182,657.8182 C573.8182,661.0909 571.6364,663.2727 568.3636,663.2727 C571.6364,663.2727 573.8182,665.4545 573.8182,668.7273 C573.8182,672 571.6364,674.1818 568.3636,674.1818 C571.6364,674.1818 573.8182,676.3636 573.8182,679.6364 C573.8182,682.9091 571.6364,685.0909 568.3636,685.0909 C571.6364,685.0909 573.8182,687.2727 573.8182,690.5455 C573.8182,693.8182 571.6364,696 568.3636,696 C571.6364,696 573.8182,698.1818 573.8182,701.4545 C573.8182,704.7273 571.6364,706.9091 568.3636,706.9091 C571.6364,706.9091 573.8182,709.0909 573.8182,712.3636 C573.8182,715.6364 571.6364,717.8182 568.3636,717.8182 C571.6364,717.8182 573.8182,720 573.8182,723.2727 C573.8182,726.5455 571.6364,728.7273 568.3636,728.7273 C571.6364,728.7273 573.8182,730.9091 573.8182,734.1818 C573.8182,737.4545 571.6364,739.6364 568.3636,739.6364 C571.6364,739.6364 573.8182,741.8182 573.8182,745.0909 C573.8182,748.3636 571.6364,750.5455 568.3636,750.5455 C571.6364,750.5455 573.8182,752.7273 573.8182,756 C573.8182,759.2727 571.6364,761.4545 568.3636,761.4545 C571.6364,761.4545 573.8182,763.6364 573.8182,766.9091 C573.8182,770.1818 571.6364,772.3636 568.3636,772.3636 C571.6364,772.3636 573.8182,774.5455 573.8182,777.8182 C573.8182,781.0909 571.6364,783.2727 568.3636,783.2727 C571.6364,783.2727 573.8182,785.4545 573.8182,788.7273 C573.8182,792 571.6364,794.1818 568.3636,794.1818 C571.6364,794.1818 573.8182,796.3636 573.8182,799.6364 C573.8182,802.9091 571.6364,805.0909 568.3636,805.0909 C571.6364,805.0909 573.8182,807.2727 573.8182,810.5455 C573.8182,813.8182 571.6364,816 568.3636,816 C571.6364,816 573.8182,818.1818 573.8182,821.4545 C573.8182,824.7273 571.6364,826.9091 568.3636,826.9091 C571.6364,826.9091 573.8182,829.0909 573.8182,832.3636 C573.8182,835.6364 571.6364,837.8182 568.3636,837.8182 C568.3636,841.0909 565.0909,843.2727 562.9091,843.2727 C559.6364,843.2727 557.4545,841.0909 557.4545,837.8182 C557.4545,841.0909 554.1818,843.2727 552,843.2727 C548.7273,843.2727 546.5455,841.0909 546.5455,837.8182 C546.5455,841.0909 543.2727,843.2727 541.0909,843.2727 C537.8182,843.2727 535.6364,841.0909 535.6364,837.8182 C535.6364,841.0909 532.3636,843.2727 530.1818,843.2727 C526.9091,843.2727 524.7273,841.0909 524.7273,837.8182 C524.7273,841.0909 521.4545,843.2727 519.2727,843.2727 C516,843.2727 513.8182,841.0909 513.8182,837.8182 C513.8182,841.0909 510.5455,843.2727 508.3636,843.2727 C505.0909,843.2727 502.9091,841.0909 502.9091,837.8182 C502.9091,841.0909 499.6364,843.2727 497.4545,843.2727 C494.1818,843.2727 492,841.0909 492,837.8182 C492,841.0909 488.7273,843.2727 486.5455,843.2727 C483.2727,843.2727 481.0909,841.0909 481.0909,837.8182 C481.0909,841.0909 477.8182,843.2727 475.6364,843.2727 C472.3636,843.2727 470.1818,841.0909 470.1818,837.8182 C470.1818,841.0909 466.9091,843.2727 464.7273,843.2727 C461.4545,843.2727 459.2727,841.0909 459.2727,837.8182 C459.2727,841.0909 456,843.2727 453.8182,843.2727 C450.5455,843.2727 448.3636,841.0909 448.3636,837.8182 C448.3636,841.0909 445.0909,843.2727 442.9091,843.2727 C439.6364,843.2727 437.4545,841.0909 437.4545,837.8182 C434.1818,837.8182 432,835.6364 432,832.3636 C432,829.0909 434.1818,826.9091 437.4545,826.9091 C434.1818,826.9091 432,824.7273 432,821.4545 C432,818.1818 434.1818,816 437.4545,816 C434.1818,816 432,813.8182 432,810.5455 C432,807.2727 434.1818,805.0909 437.4545,805.0909 C434.1818,805.0909 432,802.9091 432,799.6364 C432,796.3636 434.1818,794.1818 437.4545,794.1818 C434.1818,794.1818 432,792 432,788.7273 C432,785.4545 434.1818,783.2727 437.4545,783.2727 C434.1818,783.2727 432,781.0909 432,777.8182 C432,774.5455 434.1818,772.3636 437.4545,772.3636 C434.1818,772.3636 432,770.1818 432,766.9091 C432,763.6364 434.1818,761.4545 437.4545,761.4545 C434.1818,761.4545 432,759.2727 432,756 C432,752.7273 434.1818,750.5455 437.4545,750.5455 C434.1818,750.5455 432,748.3636 432,745.0909 C432,741.8182 434.1818,739.6364 437.4545,739.6364 C434.1818,739.6364 432,737.4545 432,734.1818 C432,730.9091 434.1818,728.7273 437.4545,728.7273 C434.1818,728.7273 432,726.5455 432,723.2727 C432,720 434.1818,717.8182 437.4545,717.8182 C434.1818,717.8182 432,715.6364 432,712.3636 C432,709.0909 434.1818,706.9091 437.4545,706.9091 C434.1818,706.9091 432,704.7273 432,701.4545 C432,698.1818 434.1818,696 437.4545,696 C434.1818,696 432,693.8182 432,690.5455 C432,687.2727 434.1818,685.0909 437.4545,685.0909 C434.1818,685.0909 432,682.9091 432,679.6364 C432,676.3636 434.1818,674.1818 437.4545,674.1818 C434.1818,674.1818 432,672 432,668.7273 C432,665.4545 434.1818,663.2727 437.4545,663.2727 C434.1818,663.2727 432,661.0909 432,657.8182 C432,654.5455 434.1818,652.3636 437.4545,652.3636 C434.1818,652.3636 432,650.1818 432,646.9091 C432,643.6364 434.1818,641.4545 437.4545,641.4545 C434.1818,641.4545 432,639.2727 432,636 C432,632.7273 434.1818,630.5455 437.4545,630.5455 " fill="#FFFFFF" filter="url(#f1kxnzvx7nzzyd)" style="stroke: #000000; stroke-width: 1.6363636363636362;"/><text fill="#000000" font-family="sans-serif" font-size="15.2727" font-weight="bold" lengthAdjust="spacingAndGlyphs" textLength="50.1818" x="477.8182" y="651.8565">Mesos</text><!--entity FrameworkState--><rect fill="#D3D3D3" filter="url(#f1kxnzvx7nzzyd)" height="140.6506" style="stroke: #A80036; stroke-width: 1.6363636363636362;" width="391.6364" x="24.5455" y="46.9091"/><rect fill="#D3D3D3" height="10.9091" style="stroke: #A80036; stroke-width: 1.6363636363636362;" width="16.3636" x="394.3636" y="52.3636"/><rect fill="#D3D3D3" height="2.1818" style="stroke: #A80036; stroke-width: 1.6363636363636362;" width="4.3636" x="392.1818" y="54.5455"/><rect fill="#D3D3D3" height="2.1818" style="stroke: #A80036; stroke-width: 1.6363636363636362;" width="4.3636" x="392.1818" y="58.9091"/><text fill="#000000" font-family="sans-serif" font-size="15.2727" font-weight="bold" lengthAdjust="spacingAndGlyphs" textLength="126.5455" x="40.9091" y="83.4929">FrameworkState</text><text fill="#000000" font-family="sans-serif" font-size="15.2727" lengthAdjust="spacingAndGlyphs" textLength="0" x="45.2727" y="101.4801"/><text fill="#000000" font-family="sans-serif" font-size="15.2727" lengthAdjust="spacingAndGlyphs" textLength="348" x="40.9091" y="119.4673">• Framework is responsible for knowing which</text><text fill="#000000" font-family="sans-serif" font-size="15.2727" lengthAdjust="spacingAndGlyphs" textLength="144" x="40.9091" y="137.4545">services it launches</text><text fill="#000000" font-family="sans-serif" font-size="15.2727" lengthAdjust="spacingAndGlyphs" textLength="290.1818" x="40.9091" y="155.4418">• Framework maps this state to unified</text><text fill="#000000" font-family="sans-serif" font-size="15.2727" lengthAdjust="spacingAndGlyphs" textLength="319.6364" x="40.9091" y="173.429">scheduler PodSpecs and ReservationSpecs.</text><!--entity Orchestrator--><rect fill="#D3D3D3" filter="url(#f1kxnzvx7nzzyd)" height="122.6634" style="stroke: #A80036; stroke-width: 1.6363636363636362;" width="336" x="67.6364" y="610.9091"/><rect fill="#D3D3D3" height="10.9091" style="stroke: #A80036; stroke-width: 1.6363636363636362;" width="16.3636" x="381.8182" y="616.3636"/><rect fill="#D3D3D3" height="2.1818" style="stroke: #A80036; stroke-width: 1.6363636363636362;" width="4.3636" x="379.6364" y="618.5455"/><rect fill="#D3D3D3" height="2.1818" style="stroke: #A80036; stroke-width: 1.6363636363636362;" width="4.3636" x="379.6364" y="622.9091"/><text fill="#000000" font-family="sans-serif" font-size="15.2727" font-weight="bold" lengthAdjust="spacingAndGlyphs" textLength="99.2727" x="84" y="647.4929">Orchestrator</text><text fill="#000000" font-family="sans-serif" font-size="15.2727" lengthAdjust="spacingAndGlyphs" textLength="292.3636" x="84" y="665.4801">• Framework provided layer to manage</text><text fill="#000000" font-family="sans-serif" font-size="15.2727" lengthAdjust="spacingAndGlyphs" textLength="160.3636" x="84" y="683.4673">deployment concerns</text><text fill="#000000" font-family="sans-serif" font-size="15.2727" lengthAdjust="spacingAndGlyphs" textLength="267.2727" x="84" y="701.4545">• Respond to task statuses and take</text><text fill="#000000" font-family="sans-serif" font-size="15.2727" lengthAdjust="spacingAndGlyphs" textLength="292.3636" x="84" y="719.4418">appropriate actions, such as restarting.</text><!--entity Scheduler--><rect fill="#FEFECE" filter="url(#f1kxnzvx7nzzyd)" height="122.6634" style="stroke: #A80036; stroke-width: 1.6363636363636362;" width="346.9091" x="61.0909" y="253.0909"/><rect fill="#FEFECE" height="10.9091" style="stroke: #A80036; stroke-width: 1.6363636363636362;" width="16.3636" x="386.1818" y="258.5455"/><rect fill="#FEFECE" height="2.1818" style="stroke: #A80036; stroke-width: 1.6363636363636362;" width="4.3636" x="384" y="260.7273"/><rect fill="#FEFECE" height="2.1818" style="stroke: #A80036; stroke-width: 1.6363636363636362;" width="4.3636" x="384" y="265.0909"/><text fill="#000000" font-family="sans-serif" font-size="15.2727" font-weight="bold" lengthAdjust="spacingAndGlyphs" textLength="75.2727" x="77.4545" y="289.6747">Scheduler</text><text fill="#000000" font-family="sans-serif" font-size="15.2727" lengthAdjust="spacingAndGlyphs" textLength="303.2727" x="77.4545" y="307.6619">• Receives PodSpec and ReservationSpec</text><text fill="#000000" font-family="sans-serif" font-size="15.2727" lengthAdjust="spacingAndGlyphs" textLength="187.6364" x="77.4545" y="325.6491">• Handles offer matching</text><text fill="#000000" font-family="sans-serif" font-size="15.2727" lengthAdjust="spacingAndGlyphs" textLength="117.8182" x="77.4545" y="343.6364">• Reconciliation</text><text fill="#000000" font-family="sans-serif" font-size="15.2727" lengthAdjust="spacingAndGlyphs" textLength="302.1818" x="77.4545" y="361.6236">• Emits PodStatus and ReservationStatus</text><!--entity SchedulerStorage--><rect fill="#FEFECE" filter="url(#f1kxnzvx7nzzyd)" height="104.6761" style="stroke: #A80036; stroke-width: 1.6363636363636362;" width="312" x="79.6364" y="440.7273"/><rect fill="#FEFECE" height="10.9091" style="stroke: #A80036; stroke-width: 1.6363636363636362;" width="16.3636" x="369.8182" y="446.1818"/><rect fill="#FEFECE" height="2.1818" style="stroke: #A80036; stroke-width: 1.6363636363636362;" width="4.3636" x="367.6364" y="448.3636"/><rect fill="#FEFECE" height="2.1818" style="stroke: #A80036; stroke-width: 1.6363636363636362;" width="4.3636" x="367.6364" y="452.7273"/><text fill="#000000" font-family="sans-serif" font-size="15.2727" font-weight="bold" lengthAdjust="spacingAndGlyphs" textLength="134.1818" x="96" y="477.3111">SchedulerStorage</text><text fill="#000000" font-family="sans-serif" font-size="15.2727" lengthAdjust="spacingAndGlyphs" textLength="268.3636" x="96" y="495.2983">• Stores data that cannot be reliably</text><text fill="#000000" font-family="sans-serif" font-size="15.2727" lengthAdjust="spacingAndGlyphs" textLength="165.8182" x="96" y="513.2855">recovered from Mesos</text><text fill="#000000" font-family="sans-serif" font-size="15.2727" lengthAdjust="spacingAndGlyphs" textLength="81.8182" x="96" y="531.2727">• Pipelined</text><!--entity MesosMaster--><rect fill="#FFFFFF" filter="url(#f1kxnzvx7nzzyd)" height="39.8054" style="stroke: #A80036; stroke-width: 1.6363636363636362;" width="118.9091" x="443.4545" y="652.3636"/><rect fill="#FFFFFF" height="5.4545" style="stroke: #A80036; stroke-width: 1.6363636363636362;" width="10.9091" x="438" y="657.8182"/><rect fill="#FFFFFF" height="5.4545" style="stroke: #A80036; stroke-width: 1.6363636363636362;" width="10.9091" x="438" y="681.2599"/><text fill="#000000" font-family="sans-serif" font-size="15.2727" lengthAdjust="spacingAndGlyphs" textLength="97.0909" x="454.3636" y="678.0384">MesosMaster</text><!--entity Agent--><rect fill="#FFFFFF" filter="url(#f1kxnzvx7nzzyd)" height="39.8054" style="stroke: #A80036; stroke-width: 1.6363636363636362;" width="66.5455" x="469.6364" y="798.5455"/><rect fill="#FFFFFF" height="5.4545" style="stroke: #A80036; stroke-width: 1.6363636363636362;" width="10.9091" x="464.1818" y="804"/><rect fill="#FFFFFF" height="5.4545" style="stroke: #A80036; stroke-width: 1.6363636363636362;" width="10.9091" x="464.1818" y="827.4418"/><text fill="#000000" font-family="sans-serif" font-size="15.2727" lengthAdjust="spacingAndGlyphs" textLength="44.7273" x="480.5455" y="824.2202">Agent</text><!--link Scheduler to SchedulerStorage--><path d="M234.9208,375.7522 C235.0377,394.897 235.1659,415.9352 235.2812,434.8457 " fill="none" id="Scheduler-SchedulerStorage" style="stroke: #A80036; stroke-width: 1.0909090909090908;"/><polygon fill="#A80036" points="235.3165,440.6419,239.62,430.7972,235.2832,435.1874,230.8929,430.8505,235.3165,440.6419" style="stroke: #A80036; stroke-width: 1.0909090909090908;"/><!--link MesosMaster to Agent--><path d="M493.0418,691.7147 C487.9989,717.8708 487.675,764.0786 492.0701,792.8103 " fill="none" id="MesosMaster-Agent" style="stroke: #A80036; stroke-width: 1.0909090909090908;"/><polygon fill="#A80036" points="493.0121,798.3125,495.6562,787.8987,492.0916,792.9362,487.0541,789.3717,493.0121,798.3125" style="stroke: #A80036; stroke-width: 1.0909090909090908;"/><!--link MesosMaster to Agent--><path d="M514.3581,697.2022 C519.0315,725.8651 518.7082,772.0778 513.3883,798.3125 " fill="none" id="MesosMaster-Agent" style="stroke: #A80036; stroke-width: 1.0909090909090908;"/><polygon fill="#A80036" points="513.3568,691.7147,510.8266,702.1567,514.336,697.0806,519.4121,700.59,513.3568,691.7147" style="stroke: #A80036; stroke-width: 1.0909090909090908;"/><!--link MesosMaster to Scheduler--><path d="M499.0373,652.1412 C489.9485,609.6077 463.9259,508.1078 411.2727,440.7273 C393.0079,417.3536 369.2969,396.4028 345.2065,378.5906 " fill="none" id="MesosMaster-Scheduler" style="stroke: #A80036; stroke-width: 1.0909090909090908;"/><polygon fill="#A80036" points="340.7052,375.3013,346.058,384.6172,345.1093,378.5194,351.207,377.5707,340.7052,375.3013" style="stroke: #A80036; stroke-width: 1.0909090909090908;"/><!--link SchedulerStorage to MesosMaster--><path d="M332.4241,545.5523 C365.5661,564.8032 402.306,587.6143 434.1818,610.9091 C449.6992,622.2492 465.8213,636.4342 478.5477,648.2803 " fill="none" id="SchedulerStorage-MesosMaster" style="stroke: #A80036; stroke-width: 1.0909090909090908;"/><polygon fill="#A80036" points="482.7276,652.2005,478.5513,642.3012,478.749,648.4692,472.5811,648.6669,482.7276,652.2005" style="stroke: #A80036; stroke-width: 1.0909090909090908;"/><!--link SchedulerStorage to Orchestrator--><path d="M235.6364,545.8019 C235.6364,564.4567 235.6364,585.6916 235.6364,605.3519 " fill="none" id="SchedulerStorage-Orchestrator" style="stroke: #A80036; stroke-width: 1.0909090909090908;"/><polygon fill="#A80036" points="235.6364,610.8519,240,601.0337,235.6364,605.3974,231.2727,601.0337,235.6364,610.8519" style="stroke: #A80036; stroke-width: 1.0909090909090908;"/><!--link FrameworkState to Scheduler--><path d="M225.4436,187.8052 C226.8337,207.1068 228.3362,227.9691 229.7122,247.0733 " fill="none" id="FrameworkState-Scheduler" style="stroke: #A80036; stroke-width: 1.0909090909090908;"/><polygon fill="#A80036" points="230.1348,252.9421,233.7817,242.8358,229.7429,247.5017,225.0769,243.4629,230.1348,252.9421" style="stroke: #A80036; stroke-width: 1.0909090909090908;"/><rect fill="#DDDDDD" height="87.2216" rx="5.4545" ry="5.4545" style="stroke: #000000; stroke-width: 1.0909090909090908;" width="201.8182" x="198.5455" y="874.9091"/><text fill="#000000" font-family="sans-serif" font-size="15.2727" font-weight="bold" lengthAdjust="spacingAndGlyphs" textLength="55.6364" x="210.5455" y="897.3111">Legend</text><rect fill="#D3D3D3" height="17.9872" style="stroke: none; stroke-width: 1.0909090909090908;" width="188.7273" x="205.0909" y="900.5327"/><text fill="#000000" font-family="sans-serif" font-size="15.2727" lengthAdjust="spacingAndGlyphs" textLength="154.9091" x="209.4545" y="915.2983">Framework provided</text><rect fill="#FFFFE0" height="17.9872" style="stroke: none; stroke-width: 1.0909090909090908;" width="188.7273" x="205.0909" y="918.5199"/><text fill="#000000" font-family="sans-serif" font-size="15.2727" lengthAdjust="spacingAndGlyphs" textLength="180" x="209.4545" y="933.2855">UnifiedScheduler library</text><rect fill="#FFFFFF" height="17.9872" style="stroke: none; stroke-width: 1.0909090909090908;" width="188.7273" x="205.0909" y="936.5071"/><text fill="#000000" font-family="sans-serif" font-size="15.2727" lengthAdjust="spacingAndGlyphs" textLength="46.9091" x="209.4545" y="951.2727">Mesos</text><line style="stroke: #000000; stroke-width: 1.0909090909090908;" x1="205.0909" x2="393.8182" y1="882.5455" y2="882.5455"/><line style="stroke: #000000; stroke-width: 1.0909090909090908;" x1="205.0909" x2="393.8182" y1="900.5327" y2="900.5327"/><line style="stroke: #000000; stroke-width: 1.0909090909090908;" x1="205.0909" x2="393.8182" y1="918.5199" y2="918.5199"/><line style="stroke: #000000; stroke-width: 1.0909090909090908;" x1="205.0909" x2="393.8182" y1="936.5071" y2="936.5071"/><line style="stroke: #000000; stroke-width: 1.0909090909090908;" x1="205.0909" x2="393.8182" y1="954.4943" y2="954.4943"/><line style="stroke: #000000; stroke-width: 1.0909090909090908;" x1="205.0909" x2="205.0909" y1="882.5455" y2="954.4943"/><line style="stroke: #000000; stroke-width: 1.0909090909090908;" x1="393.8182" x2="393.8182" y1="882.5455" y2="954.4943"/><!--
@startuml
scale 600 width

legend
|= Legend|
|<#LightGrey> Framework provided |
|<#LightYellow> UnifiedScheduler library |
|<#White> Mesos |
endlegend

cloud Framework {
  component FrameworkState #LightGrey [
    <b>FrameworkState</b>

    • Framework is responsible for knowing which
      services it launches
    • Framework maps this state to unified
      scheduler PodSpecs and ReservationSpecs.
  ]

  package UnifiedScheduler {
    component Scheduler [
      <b>Scheduler</b>
      • Receives PodSpec and ReservationSpec
      • Handles offer matching
      • Reconciliation
      • Emits PodStatus and ReservationStatus
    ]

    component SchedulerStorage [
      **SchedulerStorage**
      • Stores data that cannot be reliably
        recovered from Mesos
      • Pipelined
    ]

    Scheduler - -> SchedulerStorage
  }

  component Orchestrator #LightGrey [
    <b>Orchestrator</b>
    • Framework provided layer to manage
      deployment concerns
    • Respond to task statuses and take
      appropriate actions, such as restarting.
  ]
}

cloud Mesos {
  component MesosMaster #White
  component Agent #White
  MesosMaster - -> Agent
  MesosMaster <- - Agent
}

MesosMaster - -> Scheduler
SchedulerStorage - -> MesosMaster
SchedulerStorage - -> Orchestrator
FrameworkState - -> Scheduler

 
@enduml

PlantUML version 1.2018.13(Mon Nov 26 10:11:51 MST 2018)
(GPL source distribution)
Java Runtime: Java(TM) SE Runtime Environment
JVM: Java HotSpot(TM) 64-Bit Server VM
Java Version: 1.8.0_162-b12
Operating System: Mac OS X
OS Version: 10.13.6
Default Encoding: UTF-8
Language: en
Country: US
--></g></svg>