<?xml version="1.0" encoding="UTF-8" standalone="no"?><svg xmlns="http://www.w3.org/2000/svg" xmlns:xlink="http://www.w3.org/1999/xlink" contentScriptType="application/ecmascript" contentStyleType="text/css" height="497px" preserveAspectRatio="none" style="width:568px;height:497px;" version="1.1" viewBox="0 0 568 497" width="568px" zoomAndPan="magnify"><defs><filter height="300%" id="f1335lyqo8b2d7" width="300%" x="-1" y="-1"><feGaussianBlur result="blurOut" stdDeviation="2.0"/><feColorMatrix in="blurOut" result="blurOut2" type="matrix" values="0 0 0 0 0 0 0 0 0 0 0 0 0 0 0 0 0 0 .4 0"/><feOffset dx="4.0" dy="4.0" in="blurOut2" result="blurOut3"/><feBlend in="SourceGraphic" in2="blurOut3" mode="normal"/></filter></defs><g><ellipse cx="236.5" cy="18" fill="#000000" filter="url(#f1335lyqo8b2d7)" rx="10" ry="10" style="stroke: none; stroke-width: 1.0;"/><rect fill="#FEFECE" filter="url(#f1335lyqo8b2d7)" height="50.6211" rx="12.5" ry="12.5" style="stroke: #A80036; stroke-width: 1.5;" width="93" x="190" y="89"/><line style="stroke: #A80036; stroke-width: 1.5;" x1="190" x2="283" y1="115.4883" y2="115.4883"/><text fill="#000000" font-family="sans-serif" font-size="14" lengthAdjust="spacingAndGlyphs" textLength="38" x="217.5" y="107.5352">Initial</text><text fill="#000000" font-family="sans-serif" font-size="12" lengthAdjust="spacingAndGlyphs" textLength="73" x="195" y="132.0898">Goal running</text><rect fill="#FEFECE" filter="url(#f1335lyqo8b2d7)" height="50.6211" rx="12.5" ry="12.5" style="stroke: #A80036; stroke-width: 1.5;" width="97" x="6" y="203.5"/><line style="stroke: #A80036; stroke-width: 1.5;" x1="6" x2="103" y1="229.9883" y2="229.9883"/><text fill="#000000" font-family="sans-serif" font-size="14" lengthAdjust="spacingAndGlyphs" textLength="43" x="33" y="222.0352">Killing</text><text fill="#000000" font-family="sans-serif" font-size="12" lengthAdjust="spacingAndGlyphs" textLength="77" x="11" y="246.5898">Goal terminal</text><rect fill="#FEFECE" filter="url(#f1335lyqo8b2d7)" height="50.6211" rx="12.5" ry="12.5" style="stroke: #A80036; stroke-width: 1.5;" width="137" x="168" y="336"/><line style="stroke: #A80036; stroke-width: 1.5;" x1="168" x2="305" y1="362.4883" y2="362.4883"/><text fill="#000000" font-family="sans-serif" font-size="14" lengthAdjust="spacingAndGlyphs" textLength="62" x="205.5" y="354.5352">[Deleted]</text><text fill="#000000" font-family="sans-serif" font-size="12" lengthAdjust="spacingAndGlyphs" textLength="117" x="173" y="379.0898">PodSpec is removed</text><path d="M318,94 L318,110.5 L283.1211,114.5 L318,118.5 L318,134.6211 A0,0 0 0 0 318,134.6211 L463,134.6211 A0,0 0 0 0 463,134.6211 L463,104 L453,94 L318,94 A0,0 0 0 0 318,94 " fill="#FBFB77" filter="url(#f1335lyqo8b2d7)" style="stroke: #A80036; stroke-width: 1.0;"/><path d="M453,94 L453,104 L463,104 L453,94 " fill="#FBFB77" style="stroke: #A80036; stroke-width: 1.0;"/><text fill="#000000" font-family="sans-serif" font-size="13" lengthAdjust="spacingAndGlyphs" textLength="112" x="324" y="111.5684">New specification</text><text fill="#000000" font-family="sans-serif" font-size="13" lengthAdjust="spacingAndGlyphs" textLength="124" x="324" y="126.8789">RunSpec is required</text><path d="M138,201 L138,225 L103.2266,229 L138,233 L138,256.9316 A0,0 0 0 0 138,256.9316 L349,256.9316 A0,0 0 0 0 349,256.9316 L349,211 L339,201 L138,201 A0,0 0 0 0 138,201 " fill="#FBFB77" filter="url(#f1335lyqo8b2d7)" style="stroke: #A80036; stroke-width: 1.0;"/><path d="M339,201 L339,211 L349,211 L339,201 " fill="#FBFB77" style="stroke: #A80036; stroke-width: 1.0;"/><text fill="#000000" font-family="sans-serif" font-size="13" lengthAdjust="spacingAndGlyphs" textLength="166" x="144" y="218.5684">RunSpec is optional, but if</text><text fill="#000000" font-family="sans-serif" font-size="13" lengthAdjust="spacingAndGlyphs" textLength="190" x="144" y="233.8789">specified must not differ from</text><text fill="#000000" font-family="sans-serif" font-size="13" lengthAdjust="spacingAndGlyphs" textLength="40" x="144" y="249.1895">Initial.</text><path d="M340.5,318 L340.5,357.5 L305.2344,361.5 L340.5,365.5 L340.5,404.5527 A0,0 0 0 0 340.5,404.5527 L556.5,404.5527 A0,0 0 0 0 556.5,404.5527 L556.5,328 L546.5,318 L340.5,318 A0,0 0 0 0 340.5,318 " fill="#FBFB77" filter="url(#f1335lyqo8b2d7)" style="stroke: #A80036; stroke-width: 1.0;"/><path d="M546.5,318 L546.5,328 L556.5,328 L546.5,318 " fill="#FBFB77" style="stroke: #A80036; stroke-width: 1.0;"/><text fill="#000000" font-family="sans-serif" font-size="13" lengthAdjust="spacingAndGlyphs" textLength="163" x="346.5" y="335.5684">UnifiedScheduler removes</text><text fill="#000000" font-family="sans-serif" font-size="13" lengthAdjust="spacingAndGlyphs" textLength="170" x="346.5" y="350.8789">associated PodRecord info.</text><text fill="#000000" font-family="sans-serif" font-size="13" lengthAdjust="spacingAndGlyphs" textLength="0" x="350.5" y="366.1895"/><text fill="#000000" font-family="sans-serif" font-size="13" lengthAdjust="spacingAndGlyphs" textLength="179" x="346.5" y="381.5">If task is still running, it will</text><text fill="#000000" font-family="sans-serif" font-size="13" lengthAdjust="spacingAndGlyphs" textLength="195" x="346.5" y="396.8105">be reported as a spurious task.</text><ellipse cx="236.5" cy="476" fill="none" filter="url(#f1335lyqo8b2d7)" rx="10" ry="10" style="stroke: #000000; stroke-width: 1.0;"/><ellipse cx="237" cy="476.5" fill="#000000" rx="6" ry="6" style="stroke: none; stroke-width: 1.0;"/><!--link *start to Initial--><path d="M236.5,28.3272 C236.5,41.3935 236.5,64.4834 236.5,83.4749 " fill="none" id="*start-Initial" style="stroke: #A80036; stroke-width: 1.0;"/><polygon fill="#A80036" points="236.5,88.7111,240.5,79.7111,236.5,83.7111,232.5,79.7111,236.5,88.7111" style="stroke: #A80036; stroke-width: 1.0;"/><!--link Initial to Killing--><path d="M195.6556,140.196 C167.0867,158.1693 128.9266,182.1767 99.4862,200.6982 " fill="none" id="Initial-Killing" style="stroke: #A80036; stroke-width: 1.0;"/><polygon fill="#A80036" points="95.208,203.3897,104.9559,201.9828,99.4401,200.7271,100.6958,195.2114,95.208,203.3897" style="stroke: #A80036; stroke-width: 1.0;"/><!--link Initial to Deleted--><path d="M283.2863,131.9745 C312.9632,145.7918 348.9609,168.2629 366.5,201 C378.2538,222.9387 377.2553,234.555 366.5,257 C350.8211,289.72 319.3482,315.4442 291.2976,333.1825 " fill="none" id="Initial-Deleted" style="stroke: #A80036; stroke-width: 1.0;"/><polygon fill="#A80036" points="286.828,335.9607,296.5833,334.6066,291.0745,333.3211,292.36,327.8122,286.828,335.9607" style="stroke: #A80036; stroke-width: 1.0;"/><text fill="#000000" font-family="sans-serif" font-size="13" lengthAdjust="spacingAndGlyphs" textLength="54" x="405" y="219.0684">Expunge</text><text fill="#000000" font-family="sans-serif" font-size="13" lengthAdjust="spacingAndGlyphs" textLength="98" x="383" y="234.3789">(Task is already</text><text fill="#000000" font-family="sans-serif" font-size="13" lengthAdjust="spacingAndGlyphs" textLength="113" x="375.5" y="249.6895">reported terminal)</text><!--link Killing to Deleted--><path d="M89.5914,254.5473 C120.3358,276.9299 164.981,309.4326 196.9757,332.7254 " fill="none" id="Killing-Deleted" style="stroke: #A80036; stroke-width: 1.0;"/><polygon fill="#A80036" points="201.2063,335.8054,196.2845,327.2745,197.1641,332.8626,191.576,333.7421,201.2063,335.8054" style="stroke: #A80036; stroke-width: 1.0;"/><!--link Deleted to *end--><path d="M236.5,387.196 C236.5,409.6632 236.5,441.559 236.5,460.3821 " fill="none" id="Deleted-*end" style="stroke: #A80036; stroke-width: 1.0;"/><polygon fill="#A80036" points="236.5,465.7791,240.5,456.7791,236.5,460.7791,232.5,456.7791,236.5,465.7791" style="stroke: #A80036; stroke-width: 1.0;"/><!--
@startuml

[*] - -> Initial

state Initial
state Killing
state Deleted as "[Deleted]"
Initial: Goal running

Initial - -> Killing
Killing: Goal terminal

Initial - -> Deleted: Expunge\n(Task is already\nreported terminal)

Killing - -> Deleted
Deleted: PodSpec is removed

note right of Initial
  New specification
  RunSpec is required
end note

note right of Killing
  RunSpec is optional, but if
  specified must not differ from
  Initial.
end note


note right of Deleted
  UnifiedScheduler removes
  associated PodRecord info.

  If task is still running, it will
  be reported as a spurious task.
end note

Deleted - -> [*]
@enduml

PlantUML version 1.2018.13(Mon Nov 26 10:11:51 MST 2018)
(GPL source distribution)
Java Runtime: Java(TM) SE Runtime Environment
JVM: Java HotSpot(TM) 64-Bit Server VM
Java Version: 1.8.0_162-b12
Operating System: Mac OS X
OS Version: 10.13.6
Default Encoding: UTF-8
Language: en
Country: US
--></g></svg>