<?xml version="1.0" encoding="UTF-8" standalone="no"?><svg xmlns="http://www.w3.org/2000/svg" xmlns:xlink="http://www.w3.org/1999/xlink" contentScriptType="application/ecmascript" contentStyleType="text/css" height="1152px" preserveAspectRatio="none" style="width:823px;height:1152px;" version="1.1" viewBox="0 0 823 1152" width="823px" zoomAndPan="magnify"><defs><filter height="300%" id="fmop19fulervn" width="300%" x="-1" y="-1"><feGaussianBlur result="blurOut" stdDeviation="2.0"/><feColorMatrix in="blurOut" result="blurOut2" type="matrix" values="0 0 0 0 0 0 0 0 0 0 0 0 0 0 0 0 0 0 .4 0"/><feOffset dx="4.0" dy="4.0" in="blurOut2" result="blurOut3"/><feBlend in="SourceGraphic" in2="blurOut3" mode="normal"/></filter></defs><g><!--cluster Scheduler--><polygon fill="#FFFFFF" filter="url(#fmop19fulervn)" points="120,16,195,16,202,38.4883,654,38.4883,654,1019,120,1019,120,16" style="stroke: #000000; stroke-width: 1.5;"/><line style="stroke: #000000; stroke-width: 1.5;" x1="120" x2="202" y1="38.4883" y2="38.4883"/><text fill="#000000" font-family="sans-serif" font-size="14" font-weight="bold" lengthAdjust="spacingAndGlyphs" textLength="69" x="124" y="31.5352">Scheduler</text><rect fill="#00FFFF" filter="url(#fmop19fulervn)" height="61.4648" style="stroke: #A80036; stroke-width: 1.5;" width="63" x="321.5" y="274"/><text fill="#000000" font-family="sans-serif" font-size="12" lengthAdjust="spacingAndGlyphs" textLength="49" x="328.5" y="287.6016">PodSpec</text><line style="stroke: #A80036; stroke-width: 1.5;" x1="322.5" x2="383.5" y1="292.1328" y2="292.1328"/><text fill="#000000" font-family="sans-serif" font-size="10" lengthAdjust="spacingAndGlyphs" textLength="9" x="327.5" y="305.8008">id</text><text fill="#000000" font-family="sans-serif" font-size="10" lengthAdjust="spacingAndGlyphs" textLength="21" x="327.5" y="317.5781">goal</text><text fill="#000000" font-family="sans-serif" font-size="10" lengthAdjust="spacingAndGlyphs" textLength="38" x="327.5" y="329.3555">runSpec</text><rect fill="#00FFFF" filter="url(#fmop19fulervn)" height="85.0195" style="stroke: #A80036; stroke-width: 1.5;" width="121" x="389.5" y="480"/><text fill="#000000" font-family="sans-serif" font-size="12" lengthAdjust="spacingAndGlyphs" textLength="49" x="425.5" y="493.6016">RunSpec</text><line style="stroke: #A80036; stroke-width: 1.5;" x1="390.5" x2="509.5" y1="498.1328" y2="498.1328"/><text fill="#000000" font-family="sans-serif" font-size="10" lengthAdjust="spacingAndGlyphs" textLength="68" x="395.5" y="511.8008">reservationId?</text><text fill="#000000" font-family="sans-serif" font-size="10" lengthAdjust="spacingAndGlyphs" textLength="109" x="395.5" y="523.5781">resourceRequirements</text><text fill="#000000" font-family="sans-serif" font-size="10" lengthAdjust="spacingAndGlyphs" textLength="66" x="395.5" y="535.3555">commandInfo</text><text fill="#000000" font-family="sans-serif" font-size="10" lengthAdjust="spacingAndGlyphs" textLength="107" x="395.5" y="547.1328">placementConstraints</text><text fill="#000000" font-family="sans-serif" font-size="10" lengthAdjust="spacingAndGlyphs" textLength="24" x="395.5" y="558.9102">etc...</text><rect fill="#00FFFF" filter="url(#fmop19fulervn)" height="85.0195" style="stroke: #A80036; stroke-width: 1.5;" width="151" x="128.5" y="480"/><text fill="#000000" font-family="sans-serif" font-size="12" lengthAdjust="spacingAndGlyphs" textLength="94" x="157" y="493.6016">ReservationSpec</text><line style="stroke: #A80036; stroke-width: 1.5;" x1="129.5" x2="278.5" y1="498.1328" y2="498.1328"/><text fill="#000000" font-family="sans-serif" font-size="10" lengthAdjust="spacingAndGlyphs" textLength="9" x="134.5" y="511.8008">id</text><text fill="#000000" font-family="sans-serif" font-size="10" lengthAdjust="spacingAndGlyphs" textLength="37" x="134.5" y="523.5781">agentId</text><text fill="#000000" font-family="sans-serif" font-size="10" lengthAdjust="spacingAndGlyphs" textLength="19" x="134.5" y="535.3555">role</text><text fill="#000000" font-family="sans-serif" font-size="10" lengthAdjust="spacingAndGlyphs" textLength="47" x="134.5" y="547.1328">resources</text><text fill="#000000" font-family="sans-serif" font-size="10" lengthAdjust="spacingAndGlyphs" textLength="139" x="134.5" y="558.9102">goal (Unreserved | Reserved)</text><rect fill="#90EE90" filter="url(#fmop19fulervn)" height="96.7969" style="stroke: #A80036; stroke-width: 1.5;" width="75" x="418.5" y="914"/><text fill="#000000" font-family="sans-serif" font-size="12" lengthAdjust="spacingAndGlyphs" textLength="54" x="429" y="927.6016">AgentInfo</text><line style="stroke: #A80036; stroke-width: 1.5;" x1="419.5" x2="492.5" y1="932.1328" y2="932.1328"/><text fill="#000000" font-family="sans-serif" font-size="10" lengthAdjust="spacingAndGlyphs" textLength="9" x="424.5" y="945.8008">id</text><text fill="#000000" font-family="sans-serif" font-size="10" lengthAdjust="spacingAndGlyphs" textLength="9" x="424.5" y="957.5781">ip</text><text fill="#000000" font-family="sans-serif" font-size="10" lengthAdjust="spacingAndGlyphs" textLength="48" x="424.5" y="969.3555">hostname</text><text fill="#000000" font-family="sans-serif" font-size="10" lengthAdjust="spacingAndGlyphs" textLength="60" x="424.5" y="981.1328">faultDomain</text><text fill="#000000" font-family="sans-serif" font-size="10" lengthAdjust="spacingAndGlyphs" textLength="48" x="424.5" y="992.9102">attributes</text><text fill="#000000" font-family="sans-serif" font-size="10" lengthAdjust="spacingAndGlyphs" textLength="63" x="424.5" y="1004.6875">maintenance</text><rect fill="#FFC0CB" filter="url(#fmop19fulervn)" height="61.4648" style="stroke: #A80036; stroke-width: 1.5;" width="122" x="164" y="274"/><text fill="#000000" font-family="sans-serif" font-size="12" lengthAdjust="spacingAndGlyphs" textLength="108" x="171" y="287.6016">ReservationRecord</text><line style="stroke: #A80036; stroke-width: 1.5;" x1="165" x2="285" y1="292.1328" y2="292.1328"/><text fill="#000000" font-family="sans-serif" font-size="10" lengthAdjust="spacingAndGlyphs" textLength="9" x="170" y="305.8008">id</text><text fill="#000000" font-family="sans-serif" font-size="10" lengthAdjust="spacingAndGlyphs" textLength="37" x="170" y="317.5781">agentId</text><text fill="#000000" font-family="sans-serif" font-size="10" lengthAdjust="spacingAndGlyphs" textLength="47" x="170" y="329.3555">resources</text><rect fill="#FFC0CB" filter="url(#fmop19fulervn)" height="96.7969" style="stroke: #A80036; stroke-width: 1.5;" width="187" x="362.5" y="694"/><text fill="#000000" font-family="sans-serif" font-size="12" lengthAdjust="spacingAndGlyphs" textLength="63" x="424.5" y="707.6016">PodRecord</text><line style="stroke: #A80036; stroke-width: 1.5;" x1="363.5" x2="548.5" y1="712.1328" y2="712.1328"/><text fill="#000000" font-family="sans-serif" font-size="10" lengthAdjust="spacingAndGlyphs" textLength="9" x="368.5" y="725.8008">id</text><text fill="#000000" font-family="sans-serif" font-size="10" lengthAdjust="spacingAndGlyphs" textLength="55" x="368.5" y="737.5781">launchedAt</text><text fill="#000000" font-family="sans-serif" font-size="10" lengthAdjust="spacingAndGlyphs" textLength="37" x="368.5" y="749.3555">agentId</text><text fill="#000000" font-family="sans-serif" font-size="10" lengthAdjust="spacingAndGlyphs" textLength="71" x="368.5" y="761.1328">unserviceable?</text><text fill="#000000" font-family="sans-serif" font-size="10" lengthAdjust="spacingAndGlyphs" textLength="175" x="368.5" y="772.9102">-- reason (unhealthy | unreachable)</text><text fill="#000000" font-family="sans-serif" font-size="10" lengthAdjust="spacingAndGlyphs" textLength="40" x="368.5" y="784.6875">-- since</text><rect fill="#FEFECE" filter="url(#fmop19fulervn)" height="96.7969" style="stroke: #A80036; stroke-width: 1.5;" width="100" x="546" y="474"/><text fill="#000000" font-family="sans-serif" font-size="12" lengthAdjust="spacingAndGlyphs" textLength="56" x="568" y="487.6016">PodStatus</text><line style="stroke: #A80036; stroke-width: 1.5;" x1="547" x2="645" y1="492.1328" y2="492.1328"/><text fill="#000000" font-family="sans-serif" font-size="10" lengthAdjust="spacingAndGlyphs" textLength="9" x="552" y="505.8008">id</text><text fill="#000000" font-family="sans-serif" font-size="10" lengthAdjust="spacingAndGlyphs" textLength="30" x="552" y="517.5781">status</text><text fill="#000000" font-family="sans-serif" font-size="10" lengthAdjust="spacingAndGlyphs" textLength="84" x="552" y="529.3555">statusTimestamp</text><text fill="#000000" font-family="sans-serif" font-size="10" lengthAdjust="spacingAndGlyphs" textLength="82" x="552" y="541.1328">agent: AgentInfo</text><text fill="#000000" font-family="sans-serif" font-size="10" lengthAdjust="spacingAndGlyphs" textLength="88" x="552" y="552.9102">record: PodRecord</text><text fill="#000000" font-family="sans-serif" font-size="10" lengthAdjust="spacingAndGlyphs" textLength="21" x="552" y="564.6875">goal</text><rect fill="#FEFECE" filter="url(#fmop19fulervn)" height="73.2422" style="stroke: #A80036; stroke-width: 1.5;" width="115" x="404.5" y="62"/><text fill="#000000" font-family="sans-serif" font-size="12" lengthAdjust="spacingAndGlyphs" textLength="101" x="411.5" y="75.6016">ReservationStatus</text><line style="stroke: #A80036; stroke-width: 1.5;" x1="405.5" x2="518.5" y1="80.1328" y2="80.1328"/><text fill="#000000" font-family="sans-serif" font-size="10" lengthAdjust="spacingAndGlyphs" textLength="9" x="410.5" y="93.8008">id</text><text fill="#000000" font-family="sans-serif" font-size="10" lengthAdjust="spacingAndGlyphs" textLength="52" x="410.5" y="105.5781">lastSeenAt</text><text fill="#000000" font-family="sans-serif" font-size="10" lengthAdjust="spacingAndGlyphs" textLength="47" x="410.5" y="117.3555">agentInfo</text><text fill="#000000" font-family="sans-serif" font-size="10" lengthAdjust="spacingAndGlyphs" textLength="30" x="410.5" y="129.1328">status</text><rect fill="#D3D3D3" filter="url(#fmop19fulervn)" height="34.1328" style="stroke: #A80036; stroke-width: 1.5;" width="106" x="6" y="287.5"/><text fill="#000000" font-family="sans-serif" font-size="12" lengthAdjust="spacingAndGlyphs" textLength="92" x="13" y="301.1016">FrameworkState</text><line style="stroke: #A80036; stroke-width: 1.5;" x1="7" x2="111" y1="305.6328" y2="305.6328"/><rect fill="#D3D3D3" filter="url(#fmop19fulervn)" height="34.1328" style="stroke: #A80036; stroke-width: 1.5;" width="150" x="662" y="81.5"/><text fill="#000000" font-family="sans-serif" font-size="12" lengthAdjust="spacingAndGlyphs" textLength="136" x="669" y="95.1016">FrameworkOrchestrator</text><line style="stroke: #A80036; stroke-width: 1.5;" x1="663" x2="811" y1="99.6328" y2="99.6328"/><!--link PodSpec to ReservationSpec--><path d="M331.968,335.2717 C306.9952,371.809 265.0816,433.1323 236.0603,475.593 " fill="none" id="PodSpec-ReservationSpec" style="stroke: #A80036; stroke-width: 1.0;"/><polygon fill="#A80036" points="233.117,479.8992,241.4979,474.7262,235.9384,475.7713,234.8933,470.2118,233.117,479.8992" style="stroke: #A80036; stroke-width: 1.0;"/><text fill="#000000" font-family="sans-serif" font-size="13" lengthAdjust="spacingAndGlyphs" textLength="8" x="318.4923" y="356.1951">1</text><text fill="#000000" font-family="sans-serif" font-size="13" lengthAdjust="spacingAndGlyphs" textLength="24" x="211.952" y="469.1937">0..1</text><!--link PodSpec to PodStatus--><path d="M384.768,332.9997 C425.6782,369.7011 497.2546,433.9136 545.6226,477.3055 " fill="none" id="PodSpec-PodStatus" style="stroke: #A80036; stroke-width: 1.0;"/><text fill="#000000" font-family="sans-serif" font-size="13" lengthAdjust="spacingAndGlyphs" textLength="24" x="392.5642" y="334.2949">0..1</text><text fill="#000000" font-family="sans-serif" font-size="13" lengthAdjust="spacingAndGlyphs" textLength="24" x="514.0204" y="468.483">0..1</text><!--link PodSpec to PodRecord--><path d="M353,340.3772 C353,359.4272 353,383.2354 353,404.5 C353,404.5 353,404.5 353,632.5 C353,656.3077 366.0149,677.089 382.7919,693.9872 " fill="none" id="PodSpec-PodRecord" style="stroke: #A80036; stroke-width: 1.0;"/><polygon fill="#A80036" points="353,335.1364,349,344.1364,353,340.1364,357,344.1364,353,335.1364" style="stroke: #A80036; stroke-width: 1.0;"/><text fill="#000000" font-family="sans-serif" font-size="13" lengthAdjust="spacingAndGlyphs" textLength="8" x="344.125" y="356.0302">1</text><text fill="#000000" font-family="sans-serif" font-size="13" lengthAdjust="spacingAndGlyphs" textLength="8" x="363.452" y="683.3664">1</text><!--link PodSpec to RunSpec--><path d="M366.692,335.2717 C382.8837,371.6614 410.0152,432.6372 428.8991,475.0774 " fill="none" id="PodSpec-RunSpec" style="stroke: #A80036; stroke-width: 1.0;"/><polygon fill="#A80036" points="431.0446,479.8992,431.0402,470.0503,429.0119,475.331,423.7312,473.3027,431.0446,479.8992" style="stroke: #A80036; stroke-width: 1.0;"/><text fill="#000000" font-family="sans-serif" font-size="13" lengthAdjust="spacingAndGlyphs" textLength="8" x="360.8121" y="356.1951">1</text><text fill="#000000" font-family="sans-serif" font-size="13" lengthAdjust="spacingAndGlyphs" textLength="24" x="401.9176" y="469.1937">0..1</text><!--link ReservationRecord to ReservationSpec--><path d="M222.0358,335.2717 C218.5374,371.5876 212.6803,432.3899 208.5931,474.8189 " fill="none" id="ReservationRecord-ReservationSpec" style="stroke: #A80036; stroke-width: 1.0;"/><polygon fill="#A80036" points="208.1037,479.8992,212.9485,471.3243,208.5833,474.9223,204.9854,470.557,208.1037,479.8992" style="stroke: #A80036; stroke-width: 1.0;"/><text fill="#000000" font-family="sans-serif" font-size="13" lengthAdjust="spacingAndGlyphs" textLength="24" x="194.7624" y="356.1951">0..1</text><text fill="#000000" font-family="sans-serif" font-size="13" lengthAdjust="spacingAndGlyphs" textLength="8" x="200.1209" y="469.1937">1</text><!--link ReservationRecord to AgentInfo--><path d="M240.8515,335.1905 C257.3801,368.5019 282.8148,423.6874 297,474 C312.5469,529.1427 316,544.2076 316,601.5 C316,601.5 316,601.5 316,852.5 C316,902.8003 372.5686,933.5998 413.7892,949.3657 " fill="none" id="ReservationRecord-AgentInfo" style="stroke: #A80036; stroke-width: 1.0;"/><polygon fill="#A80036" points="418.4826,951.1218,411.4552,944.2214,413.7997,949.3695,408.6516,951.7141,418.4826,951.1218" style="stroke: #A80036; stroke-width: 1.0;"/><text fill="#000000" font-family="sans-serif" font-size="13" lengthAdjust="spacingAndGlyphs" textLength="8" x="235.444" y="356.0962">1</text><text fill="#000000" font-family="sans-serif" font-size="13" lengthAdjust="spacingAndGlyphs" textLength="8" x="402.5683" y="945.1405">1</text><!--link PodRecord to AgentInfo--><path d="M456,791.0523 C456,825.7871 456,872.5576 456,908.4742 " fill="none" id="PodRecord-AgentInfo" style="stroke: #A80036; stroke-width: 1.0;"/><polygon fill="#A80036" points="456,913.6919,460,904.6919,456,908.6919,452,904.6919,456,913.6919" style="stroke: #A80036; stroke-width: 1.0;"/><text fill="#000000" font-family="sans-serif" font-size="13" lengthAdjust="spacingAndGlyphs" textLength="8" x="447.4375" y="811.5391">1</text><text fill="#000000" font-family="sans-serif" font-size="13" lengthAdjust="spacingAndGlyphs" textLength="8" x="447.4375" y="903.3781">1</text><!--link PodStatus to PodRecord--><path d="M565.1031,571.0523 C542.818,606.0718 512.7476,653.3251 489.8194,689.3552 " fill="none" id="PodStatus-PodRecord" style="stroke: #A80036; stroke-width: 1.0;"/><polygon fill="#A80036" points="487.0597,693.6919,495.2663,688.2465,489.7441,689.4736,488.517,683.9515,487.0597,693.6919" style="stroke: #A80036; stroke-width: 1.0;"/><text fill="#000000" font-family="sans-serif" font-size="13" lengthAdjust="spacingAndGlyphs" textLength="24" x="535.0707" y="591.5391">0..1</text><text fill="#000000" font-family="sans-serif" font-size="13" lengthAdjust="spacingAndGlyphs" textLength="24" x="465.74" y="683.3781">0..1</text><!--link PodStatus to AgentInfo--><path d="M592.8334,571.2138 C591.8411,590.3153 591,612.4272 591,632.5 C591,632.5 591,632.5 591,852.5 C591,901.0165 537.951,931.9318 498.3618,948.2482 " fill="none" id="PodStatus-AgentInfo" style="stroke: #A80036; stroke-width: 1.0;"/><polygon fill="#A80036" points="493.605,950.1658,503.4478,950.5104,498.2423,948.2962,500.4565,943.0907,493.605,950.1658" style="stroke: #A80036; stroke-width: 1.0;"/><text fill="#000000" font-family="sans-serif" font-size="13" lengthAdjust="spacingAndGlyphs" textLength="8" x="583.8704" y="591.3704">1</text><text fill="#000000" font-family="sans-serif" font-size="13" lengthAdjust="spacingAndGlyphs" textLength="8" x="501.536" y="944.0022">1</text><!--link ReservationStatus to ReservationRecord--><path d="M419.9022,135.0913 C375.7434,173.4741 306.9086,233.3052 263.9629,270.6335 " fill="none" id="ReservationStatus-ReservationRecord" style="stroke: #A80036; stroke-width: 1.0;"/><polygon fill="#A80036" points="260.1465,273.9507,269.5633,271.0654,263.9202,270.6706,264.3151,265.0275,260.1465,273.9507" style="stroke: #A80036; stroke-width: 1.0;"/><text fill="#000000" font-family="sans-serif" font-size="13" lengthAdjust="spacingAndGlyphs" textLength="8" x="403.4029" y="155.7953">1</text><text fill="#000000" font-family="sans-serif" font-size="13" lengthAdjust="spacingAndGlyphs" textLength="24" x="241.2098" y="263.1789">0..1</text><!--link FrameworkState to PodSpec--><path d="M81.4667,287.3741 C118.0811,261.6285 192.9695,217.9889 257,238 C278.9431,244.8578 300.2817,258.687 317.2464,271.9666 " fill="none" id="FrameworkState-PodSpec" style="stroke: #A80036; stroke-width: 1.0;"/><polygon fill="#A80036" points="321.4629,275.3263,316.917,266.5893,317.5525,272.2104,311.9315,272.8459,321.4629,275.3263" style="stroke: #A80036; stroke-width: 1.0;"/><text fill="#000000" font-family="sans-serif" font-size="13" lengthAdjust="spacingAndGlyphs" textLength="50" x="206" y="240.5684">mapped</text><!--link FrameworkState to ReservationSpec--><path d="M70.3779,321.6061 C92.2177,354.4411 140.6968,427.3269 172.859,475.6811 " fill="none" id="FrameworkState-ReservationSpec" style="stroke: #A80036; stroke-width: 1.0;"/><polygon fill="#A80036" points="175.7253,479.9904,174.0715,470.2814,172.9562,475.8272,167.4104,474.7119,175.7253,479.9904" style="stroke: #A80036; stroke-width: 1.0;"/><text fill="#000000" font-family="sans-serif" font-size="13" lengthAdjust="spacingAndGlyphs" textLength="50" x="131" y="409.5684">mapped</text><!--link FrameworkOrchestrator to PodStatus--><path d="M704.4731,115.5725 C677.6546,132.2517 644,160.3785 644,196.5 C644,196.5 644,196.5 644,404.5 C644,426.5194 636.7397,449.2596 627.8665,468.8293 " fill="none" id="FrameworkOrchestrator-PodStatus" style="stroke: #A80036; stroke-width: 1.0;"/><polygon fill="#A80036" points="625.5792,473.734,633.0083,467.268,627.6925,469.2026,625.758,463.8868,625.5792,473.734" style="stroke: #A80036; stroke-width: 1.0;"/><!--link FrameworkOrchestrator to ReservationStatus--><path d="M661.8923,98.5 C616.2663,98.5 570.6404,98.5 525.0145,98.5 " fill="none" id="FrameworkOrchestrator-ReservationStatus" style="stroke: #A80036; stroke-width: 1.0;"/><polygon fill="#A80036" points="519.7393,98.5,528.7393,102.5,524.7393,98.5,528.7393,94.5,519.7393,98.5" style="stroke: #A80036; stroke-width: 1.0;"/><rect fill="#DDDDDD" height="96.4414" rx="5" ry="5" style="stroke: #000000; stroke-width: 1.0;" width="148" x="340.5" y="1045"/><text fill="#000000" font-family="sans-serif" font-size="14" font-weight="bold" lengthAdjust="spacingAndGlyphs" textLength="51" x="351.5" y="1065.5352">Legend</text><rect fill="#00FFFF" height="16.4883" style="stroke: none; stroke-width: 1.0;" width="136" x="346.5" y="1068.4883"/><text fill="#000000" font-family="sans-serif" font-size="14" lengthAdjust="spacingAndGlyphs" textLength="36" x="350.5" y="1082.0234">Input</text><rect fill="#FFC0CB" height="16.4883" style="stroke: none; stroke-width: 1.0;" width="136" x="346.5" y="1084.9766"/><text fill="#000000" font-family="sans-serif" font-size="14" lengthAdjust="spacingAndGlyphs" textLength="62" x="350.5" y="1098.5117">Persisted</text><rect fill="#90EE90" height="16.4883" style="stroke: none; stroke-width: 1.0;" width="136" x="346.5" y="1101.4648"/><text fill="#000000" font-family="sans-serif" font-size="14" lengthAdjust="spacingAndGlyphs" textLength="128" x="350.5" y="1115">Cached (persisted)</text><rect fill="#FFFF00" height="16.4883" style="stroke: none; stroke-width: 1.0;" width="136" x="346.5" y="1117.9531"/><text fill="#000000" font-family="sans-serif" font-size="14" lengthAdjust="spacingAndGlyphs" textLength="48" x="350.5" y="1131.4883">Output</text><line style="stroke: #000000; stroke-width: 1.0;" x1="346.5" x2="482.5" y1="1052" y2="1052"/><line style="stroke: #000000; stroke-width: 1.0;" x1="346.5" x2="482.5" y1="1068.4883" y2="1068.4883"/><line style="stroke: #000000; stroke-width: 1.0;" x1="346.5" x2="482.5" y1="1084.9766" y2="1084.9766"/><line style="stroke: #000000; stroke-width: 1.0;" x1="346.5" x2="482.5" y1="1101.4648" y2="1101.4648"/><line style="stroke: #000000; stroke-width: 1.0;" x1="346.5" x2="482.5" y1="1117.9531" y2="1117.9531"/><line style="stroke: #000000; stroke-width: 1.0;" x1="346.5" x2="482.5" y1="1134.4414" y2="1134.4414"/><line style="stroke: #000000; stroke-width: 1.0;" x1="346.5" x2="346.5" y1="1052" y2="1134.4414"/><line style="stroke: #000000; stroke-width: 1.0;" x1="482.5" x2="482.5" y1="1052" y2="1134.4414"/><!--
@startuml

object FrameworkState #LightGrey {

}

object FrameworkOrchestrator #LightGrey {
}

package Scheduler {

  object PodSpec #Cyan {
    id
    goal
    runSpec
  }

  object RunSpec #Cyan {
    reservationId?
    resourceRequirements
    commandInfo
    placementConstraints
    etc...
  }

  object ReservationSpec #Cyan {
    id
    agentId
    role
    resources
    goal (Unreserved | Reserved)
  }

  object AgentInfo #LightGreen {
    id
    ip
    hostname
    faultDomain
    attributes
    maintenance
  }

  object ReservationRecord #Pink {
    id
    agentId
    resources
  }

  object PodRecord #Pink {
    id
    launchedAt
    agentId
    unserviceable?
    - - reason (unhealthy | unreachable)
    - - since
  }



  object PodStatus {
    id
    status
    statusTimestamp
    agent: AgentInfo
    record: PodRecord
    goal
  }

  object ReservationStatus {
    id
    lastSeenAt
    agentInfo
    status
  }

  PodSpec "1" - -> "0..1" ReservationSpec
  PodSpec "0..1" - - "0..1" PodStatus
  PodSpec "1" <- - "1" PodRecord
  PodSpec "1" - -> "0..1" RunSpec
  ReservationRecord "0..1" - -> "1" ReservationSpec
  ReservationRecord "1" - -> "1" AgentInfo
  PodRecord "1" - -> "1" AgentInfo
  PodStatus "0..1" - -> "0..1" PodRecord
  PodStatus "1" - -> "1" AgentInfo
  ReservationStatus "1" - -> "0..1" ReservationRecord
}

FrameworkState -> PodSpec : mapped
FrameworkState -> ReservationSpec : mapped

FrameworkOrchestrator -> PodStatus
FrameworkOrchestrator -> ReservationStatus

legend
|= Legend|
|<#Cyan> Input |
|<#Pink> Persisted |
|<#LightGreen> Cached (persisted) |
|<#Yellow> Output |
endlegend

@enduml

PlantUML version 1.2018.13(Mon Nov 26 10:11:51 MST 2018)
(GPL source distribution)
Java Runtime: Java(TM) SE Runtime Environment
JVM: Java HotSpot(TM) 64-Bit Server VM
Java Version: 1.8.0_162-b12
Operating System: Mac OS X
OS Version: 10.13.6
Default Encoding: UTF-8
Language: en
Country: US
--></g></svg>