<?xml version="1.0" encoding="UTF-8" standalone="no"?><svg xmlns="http://www.w3.org/2000/svg" xmlns:xlink="http://www.w3.org/1999/xlink" contentScriptType="application/ecmascript" contentStyleType="text/css" height="681px" preserveAspectRatio="none" style="width:721px;height:681px;" version="1.1" viewBox="0 0 721 681" width="721px" zoomAndPan="magnify"><defs><filter height="300%" id="f1s8mo79mcnsc6" width="300%" x="-1" y="-1"><feGaussianBlur result="blurOut" stdDeviation="2.0"/><feColorMatrix in="blurOut" result="blurOut2" type="matrix" values="0 0 0 0 0 0 0 0 0 0 0 0 0 0 0 0 0 0 .4 0"/><feOffset dx="4.0" dy="4.0" in="blurOut2" result="blurOut3"/><feBlend in="SourceGraphic" in2="blurOut3" mode="normal"/></filter></defs><g><line style="stroke: #A80036; stroke-width: 1.0; stroke-dasharray: 5.0,5.0;" x1="72" x2="72" y1="38.4883" y2="640.6309"/><line style="stroke: #A80036; stroke-width: 1.0; stroke-dasharray: 5.0,5.0;" x1="261.5" x2="261.5" y1="38.4883" y2="640.6309"/><line style="stroke: #A80036; stroke-width: 1.0; stroke-dasharray: 5.0,5.0;" x1="429" x2="429" y1="38.4883" y2="640.6309"/><line style="stroke: #A80036; stroke-width: 1.0; stroke-dasharray: 5.0,5.0;" x1="568" x2="568" y1="38.4883" y2="640.6309"/><line style="stroke: #A80036; stroke-width: 1.0; stroke-dasharray: 5.0,5.0;" x1="661" x2="661" y1="38.4883" y2="640.6309"/><rect fill="#FEFECE" filter="url(#f1s8mo79mcnsc6)" height="30.4883" style="stroke: #A80036; stroke-width: 1.5;" width="125" x="8" y="3"/><text fill="#000000" font-family="sans-serif" font-size="14" lengthAdjust="spacingAndGlyphs" textLength="111" x="15" y="23.5352">FrameworkState</text><rect fill="#FEFECE" filter="url(#f1s8mo79mcnsc6)" height="30.4883" style="stroke: #A80036; stroke-width: 1.5;" width="125" x="8" y="639.6309"/><text fill="#000000" font-family="sans-serif" font-size="14" lengthAdjust="spacingAndGlyphs" textLength="111" x="15" y="660.166">FrameworkState</text><rect fill="#FEFECE" filter="url(#f1s8mo79mcnsc6)" height="30.4883" style="stroke: #A80036; stroke-width: 1.5;" width="82" x="218.5" y="3"/><text fill="#000000" font-family="sans-serif" font-size="14" lengthAdjust="spacingAndGlyphs" textLength="68" x="225.5" y="23.5352">Scheduler</text><rect fill="#FEFECE" filter="url(#f1s8mo79mcnsc6)" height="30.4883" style="stroke: #A80036; stroke-width: 1.5;" width="82" x="218.5" y="639.6309"/><text fill="#000000" font-family="sans-serif" font-size="14" lengthAdjust="spacingAndGlyphs" textLength="68" x="225.5" y="660.166">Scheduler</text><rect fill="#FEFECE" filter="url(#f1s8mo79mcnsc6)" height="30.4883" style="stroke: #A80036; stroke-width: 1.5;" width="135" x="360" y="3"/><text fill="#000000" font-family="sans-serif" font-size="14" lengthAdjust="spacingAndGlyphs" textLength="121" x="367" y="23.5352">SchedulerStorage</text><rect fill="#FEFECE" filter="url(#f1s8mo79mcnsc6)" height="30.4883" style="stroke: #A80036; stroke-width: 1.5;" width="135" x="360" y="639.6309"/><text fill="#000000" font-family="sans-serif" font-size="14" lengthAdjust="spacingAndGlyphs" textLength="121" x="367" y="660.166">SchedulerStorage</text><rect fill="#FEFECE" filter="url(#f1s8mo79mcnsc6)" height="30.4883" style="stroke: #A80036; stroke-width: 1.5;" width="57" x="538" y="3"/><text fill="#000000" font-family="sans-serif" font-size="14" lengthAdjust="spacingAndGlyphs" textLength="43" x="545" y="23.5352">Mesos</text><rect fill="#FEFECE" filter="url(#f1s8mo79mcnsc6)" height="30.4883" style="stroke: #A80036; stroke-width: 1.5;" width="57" x="538" y="639.6309"/><text fill="#000000" font-family="sans-serif" font-size="14" lengthAdjust="spacingAndGlyphs" textLength="43" x="545" y="660.166">Mesos</text><rect fill="#FEFECE" filter="url(#f1s8mo79mcnsc6)" height="30.4883" style="stroke: #A80036; stroke-width: 1.5;" width="101" x="609" y="3"/><text fill="#000000" font-family="sans-serif" font-size="14" lengthAdjust="spacingAndGlyphs" textLength="87" x="616" y="23.5352">Orchestrator</text><rect fill="#FEFECE" filter="url(#f1s8mo79mcnsc6)" height="30.4883" style="stroke: #A80036; stroke-width: 1.5;" width="101" x="609" y="639.6309"/><text fill="#000000" font-family="sans-serif" font-size="14" lengthAdjust="spacingAndGlyphs" textLength="87" x="616" y="660.166">Orchestrator</text><polygon fill="#A80036" points="249.5,65.7988,259.5,69.7988,249.5,73.7988,253.5,69.7988" style="stroke: #A80036; stroke-width: 1.0;"/><line style="stroke: #A80036; stroke-width: 1.0;" x1="72.5" x2="255.5" y1="69.7988" y2="69.7988"/><text fill="#000000" font-family="sans-serif" font-size="13" lengthAdjust="spacingAndGlyphs" textLength="165" x="79.5" y="65.0566">PodSpec A#1 goal running</text><polygon fill="#FBFB77" filter="url(#f1s8mo79mcnsc6)" points="158,82.7988,364,82.7988,374,116.7988,364,151.7988,158,151.7988,148,116.7988,158,82.7988" style="stroke: #A80036; stroke-width: 1.0;"/><text fill="#000000" font-family="sans-serif" font-size="13" lengthAdjust="spacingAndGlyphs" textLength="202" x="160" y="99.3672">No task exists for A#1; lets run.</text><text fill="#000000" font-family="sans-serif" font-size="13" lengthAdjust="spacingAndGlyphs" textLength="197" x="160" y="114.6777">Task placed into internal list of</text><text fill="#000000" font-family="sans-serif" font-size="13" lengthAdjust="spacingAndGlyphs" textLength="119" x="160" y="129.9883">pending instances.</text><text fill="#000000" font-family="sans-serif" font-size="13" lengthAdjust="spacingAndGlyphs" textLength="145" x="160" y="145.2988">Offers wanted signaled</text><polygon fill="#A80036" points="417.5,174.3516,427.5,178.3516,417.5,182.3516,421.5,178.3516" style="stroke: #A80036; stroke-width: 1.0;"/><line style="stroke: #A80036; stroke-width: 1.0;" x1="261.5" x2="423.5" y1="178.3516" y2="178.3516"/><text fill="#000000" font-family="sans-serif" font-size="13" lengthAdjust="spacingAndGlyphs" textLength="40" x="268.5" y="173.6094">Revive</text><polygon fill="#FBFB77" filter="url(#f1s8mo79mcnsc6)" points="333,191.3516,525,191.3516,535,202.3516,525,214.3516,333,214.3516,323,202.3516,333,191.3516" style="stroke: #A80036; stroke-width: 1.0;"/><text fill="#000000" font-family="sans-serif" font-size="13" lengthAdjust="spacingAndGlyphs" textLength="188" x="335" y="207.9199">Nothing to store; just forward</text><polygon fill="#A80036" points="556.5,236.9727,566.5,240.9727,556.5,244.9727,560.5,240.9727" style="stroke: #A80036; stroke-width: 1.0;"/><line style="stroke: #A80036; stroke-width: 1.0;" x1="429.5" x2="562.5" y1="240.9727" y2="240.9727"/><text fill="#000000" font-family="sans-serif" font-size="13" lengthAdjust="spacingAndGlyphs" textLength="40" x="436.5" y="236.2305">Revive</text><polygon fill="#A80036" points="272.5,266.2832,262.5,270.2832,272.5,274.2832,268.5,270.2832" style="stroke: #A80036; stroke-width: 1.0;"/><line style="stroke: #A80036; stroke-width: 1.0;" x1="266.5" x2="567.5" y1="270.2832" y2="270.2832"/><text fill="#000000" font-family="sans-serif" font-size="13" lengthAdjust="spacingAndGlyphs" textLength="32" x="278.5" y="265.541">Offer</text><polygon fill="#FBFB77" filter="url(#f1s8mo79mcnsc6)" points="151,283.2832,372,283.2832,382,325.2832,372,367.2832,151,367.2832,141,325.2832,151,283.2832" style="stroke: #A80036; stroke-width: 1.0;"/><text fill="#000000" font-family="sans-serif" font-size="13" lengthAdjust="spacingAndGlyphs" textLength="198" x="153" y="299.8516">Matches offers against pending</text><text fill="#000000" font-family="sans-serif" font-size="13" lengthAdjust="spacingAndGlyphs" textLength="217" x="153" y="315.1621">PodSpecs in a single, synchronous</text><text fill="#000000" font-family="sans-serif" font-size="13" lengthAdjust="spacingAndGlyphs" textLength="36" x="153" y="330.4727">frame</text><text fill="#000000" font-family="sans-serif" font-size="13" lengthAdjust="spacingAndGlyphs" textLength="0" x="157" y="345.7832"/><text fill="#000000" font-family="sans-serif" font-size="13" lengthAdjust="spacingAndGlyphs" textLength="114" x="153" y="361.0938">The offer matches</text><polygon fill="#A80036" points="417.5,390.1465,427.5,394.1465,417.5,398.1465,421.5,394.1465" style="stroke: #A80036; stroke-width: 1.0;"/><line style="stroke: #A80036; stroke-width: 1.0;" x1="261.5" x2="423.5" y1="394.1465" y2="394.1465"/><text fill="#000000" font-family="sans-serif" font-size="13" lengthAdjust="spacingAndGlyphs" textLength="115" x="268.5" y="389.4043">Offer match result</text><polygon fill="#FBFB77" filter="url(#f1s8mo79mcnsc6)" points="324,407.1465,534,407.1465,544,426.1465,534,445.1465,324,445.1465,314,426.1465,324,407.1465" style="stroke: #A80036; stroke-width: 1.0;"/><text fill="#000000" font-family="sans-serif" font-size="13" lengthAdjust="spacingAndGlyphs" textLength="206" x="326" y="423.7148">Persist PodRecord with details of</text><text fill="#000000" font-family="sans-serif" font-size="13" lengthAdjust="spacingAndGlyphs" textLength="42" x="326" y="439.0254">launch</text><polygon fill="#A80036" points="556.5,468.0781,566.5,472.0781,556.5,476.0781,560.5,472.0781" style="stroke: #A80036; stroke-width: 1.0;"/><line style="stroke: #A80036; stroke-width: 1.0;" x1="429.5" x2="562.5" y1="472.0781" y2="472.0781"/><text fill="#000000" font-family="sans-serif" font-size="13" lengthAdjust="spacingAndGlyphs" textLength="115" x="436.5" y="467.3359">Offer match result</text><polygon fill="#A80036" points="649.5,497.3887,659.5,501.3887,649.5,505.3887,653.5,501.3887" style="stroke: #A80036; stroke-width: 1.0;"/><line style="stroke: #A80036; stroke-width: 1.0;" x1="429.5" x2="655.5" y1="501.3887" y2="501.3887"/><text fill="#000000" font-family="sans-serif" font-size="13" lengthAdjust="spacingAndGlyphs" textLength="152" x="436.5" y="496.6465">PodStatus A#1 launched</text><polygon fill="#A80036" points="272.5,526.6992,262.5,530.6992,272.5,534.6992,268.5,530.6992" style="stroke: #A80036; stroke-width: 1.0;"/><line style="stroke: #A80036; stroke-width: 1.0;" x1="266.5" x2="567.5" y1="530.6992" y2="530.6992"/><text fill="#000000" font-family="sans-serif" font-size="13" lengthAdjust="spacingAndGlyphs" textLength="164" x="278.5" y="525.957">Task for Pod A#1 Running</text><polygon fill="#A80036" points="417.5,556.0098,427.5,560.0098,417.5,564.0098,421.5,560.0098" style="stroke: #A80036; stroke-width: 1.0;"/><line style="stroke: #A80036; stroke-width: 1.0;" x1="261.5" x2="423.5" y1="560.0098" y2="560.0098"/><text fill="#000000" font-family="sans-serif" font-size="13" lengthAdjust="spacingAndGlyphs" textLength="144" x="268.5" y="555.2676">PodStatus A#1 running</text><polygon fill="#FBFB77" filter="url(#f1s8mo79mcnsc6)" points="370,573.0098,489,573.0098,499,584.0098,489,596.0098,370,596.0098,360,584.0098,370,573.0098" style="stroke: #A80036; stroke-width: 1.0;"/><text fill="#000000" font-family="sans-serif" font-size="13" lengthAdjust="spacingAndGlyphs" textLength="115" x="372" y="589.5781">Nothing to persist</text><polygon fill="#A80036" points="649.5,618.6309,659.5,622.6309,649.5,626.6309,653.5,622.6309" style="stroke: #A80036; stroke-width: 1.0;"/><line style="stroke: #A80036; stroke-width: 1.0;" x1="429.5" x2="655.5" y1="622.6309" y2="622.6309"/><text fill="#000000" font-family="sans-serif" font-size="13" lengthAdjust="spacingAndGlyphs" textLength="144" x="436.5" y="617.8887">PodStatus A#1 running</text><!--
@startuml
Participant FrameworkState
Participant Scheduler
Participant SchedulerStorage
Participant Mesos
Participant Orchestrator

FrameworkState -> Scheduler: PodSpec A#1 goal running
hnote over Scheduler
  No task exists for A#1; lets run.
  Task placed into internal list of
  pending instances.
  Offers wanted signaled
end hnote

Scheduler -> SchedulerStorage: Revive
hnote over SchedulerStorage
  Nothing to store; just forward
end hnote

SchedulerStorage -> Mesos: Revive

Mesos -> Scheduler: Offer
hnote over Scheduler
  Matches offers against pending
  PodSpecs in a single, synchronous
  frame

  The offer matches
end hnote

Scheduler -> SchedulerStorage: Offer match result
hnote over SchedulerStorage
  Persist PodRecord with details of
  launch
end hnote

SchedulerStorage -> Mesos: Offer match result
SchedulerStorage -> Orchestrator: PodStatus A#1 launched


Mesos -> Scheduler: Task for Pod A#1 Running
Scheduler -> SchedulerStorage: PodStatus A#1 running
hnote over SchedulerStorage
  Nothing to persist
end hnote
SchedulerStorage -> Orchestrator: PodStatus A#1 running
@enduml

PlantUML version 1.2018.13(Mon Nov 26 10:11:51 MST 2018)
(GPL source distribution)
Java Runtime: Java(TM) SE Runtime Environment
JVM: Java HotSpot(TM) 64-Bit Server VM
Java Version: 1.8.0_162-b12
Operating System: Mac OS X
OS Version: 10.13.6
Default Encoding: UTF-8
Language: en
Country: US
--></g></svg>